<?xml version="1.0" encoding="utf-8"?>
<!-- Generator: Adobe Illustrator 25.0.0, SVG Export Plug-In . SVG Version: 6.00 Build 0)  -->
<svg version="1.1" id="Layer_1" xmlns="http://www.w3.org/2000/svg" xmlns:xlink="http://www.w3.org/1999/xlink" x="0px" y="0px"
	 viewBox="0 0 1974.3 1129" style="enable-background:new 0 0 1974.3 1129;" xml:space="preserve">
<style type="text/css">
	.st0{fill:#29ABE2;}
	.st1{fill:#F15A24;}
	.st2{fill:none;stroke:#000000;stroke-width:9;stroke-miterlimit:10;}
</style>
<g>
	<rect x="337.5" y="22.5" class="st0" width="155" height="155"/>
	<path d="M491,24v152H339V24H491 M494,21H336v158h158V21L494,21z"/>
</g>
<g>
	<path d="M420.64,120.8h-6.91V78.32l-9.65,8.06l-4.1-4.82l14.46-11.74h6.2V120.8z"/>
</g>
<g>
	<rect x="525.5" y="22.5" class="st1" width="155" height="155"/>
	<path d="M679,24v152H527V24H679 M682,21H524v158h158V21L682,21z"/>
</g>
<g>
	<path d="M619.01,120.8h-33.26v-6.7l20.3-20.16c1.54-1.58,2.86-3.24,3.96-4.97c1.1-1.73,1.66-3.67,1.66-5.83
		c0-1.34-0.24-2.56-0.72-3.64c-0.48-1.08-1.13-2-1.94-2.77c-0.82-0.77-1.78-1.36-2.88-1.76c-1.1-0.41-2.28-0.61-3.53-0.61
		c-2.59,0-4.73,0.83-6.41,2.48c-1.68,1.66-2.74,3.78-3.17,6.37l-6.84-1.15c0.29-1.92,0.9-3.71,1.84-5.36
		c0.94-1.66,2.12-3.1,3.56-4.32s3.11-2.17,5-2.84c1.9-0.67,3.92-1.01,6.08-1.01c2.11,0,4.14,0.31,6.08,0.94
		c1.94,0.62,3.66,1.54,5.15,2.74c1.49,1.2,2.68,2.71,3.56,4.54c0.89,1.82,1.33,3.91,1.33,6.26c0,1.63-0.22,3.14-0.65,4.54
		c-0.43,1.39-1.02,2.71-1.76,3.96c-0.74,1.25-1.62,2.44-2.63,3.56c-1.01,1.13-2.06,2.24-3.17,3.35l-16.56,16.13h24.98V120.8z"/>
</g>
<g>
	<rect x="713.5" y="22.5" class="st1" width="155" height="155"/>
	<path d="M867,24v152H715V24H867 M870,21H712v158h158V21L870,21z"/>
</g>
<g>
	<path d="M784.76,91.35h2.23c1.44,0,2.84-0.13,4.21-0.4c1.37-0.27,2.58-0.72,3.64-1.37c1.06-0.65,1.91-1.53,2.56-2.64
		s0.97-2.48,0.97-4.12c0-1.3-0.24-2.47-0.72-3.51c-0.48-1.04-1.14-1.92-1.98-2.64c-0.84-0.72-1.8-1.29-2.88-1.7
		c-1.08-0.41-2.22-0.62-3.42-0.62c-2.16,0-4,0.55-5.51,1.66c-1.51,1.1-2.65,2.64-3.42,4.61l-6.34-2.23
		c1.25-3.07,3.25-5.48,6.01-7.24c2.76-1.75,5.94-2.63,9.54-2.63c2.11,0,4.12,0.3,6.01,0.9c1.9,0.6,3.56,1.48,4.98,2.63
		c1.42,1.15,2.55,2.6,3.38,4.33c0.83,1.73,1.25,3.73,1.25,5.98c0,1.44-0.23,2.79-0.68,4.04c-0.46,1.25-1.08,2.38-1.87,3.39
		c-0.79,1.01-1.74,1.88-2.84,2.6c-1.1,0.72-2.3,1.25-3.6,1.59v0.14c1.49,0.29,2.87,0.79,4.14,1.51c1.27,0.72,2.36,1.62,3.28,2.7
		c0.91,1.08,1.63,2.31,2.16,3.7c0.53,1.39,0.79,2.9,0.79,4.53c0,2.54-0.48,4.78-1.43,6.72c-0.95,1.94-2.21,3.56-3.78,4.85
		c-1.57,1.29-3.39,2.28-5.45,2.95c-2.06,0.67-4.18,1.01-6.34,1.01c-4.03,0-7.58-0.91-10.66-2.74c-3.07-1.82-5.3-4.66-6.7-8.5
		l6.48-2.16c0.77,2.21,2.08,4.01,3.92,5.4c1.85,1.39,4.12,2.09,6.8,2.09c1.3,0,2.56-0.2,3.78-0.61c1.22-0.41,2.31-1.02,3.28-1.84
		c0.96-0.82,1.73-1.82,2.3-3.02c0.58-1.2,0.86-2.62,0.86-4.25c0-1.77-0.38-3.26-1.15-4.46c-0.77-1.2-1.76-2.17-2.99-2.92
		c-1.22-0.74-2.6-1.27-4.14-1.58c-1.54-0.31-3.05-0.47-4.54-0.47h-2.16V91.35z"/>
</g>
<g>
	<rect x="901.5" y="22.5" class="st1" width="155" height="155"/>
	<path d="M1055,24v152H903V24H1055 M1058,21H900v158h158V21L1058,21z"/>
</g>
<g>
	<path d="M989.9,103.37h7.34v5.98h-7.34v11.45h-6.77v-11.45h-23.47v-6.34l21.67-33.19h8.57V103.37z M983.13,77.81h-0.14
		l-16.13,25.56h16.27V77.81z"/>
</g>
<g>
	<rect x="1089.5" y="22.5" class="st0" width="155" height="155"/>
	<path d="M1243,24v152h-152V24H1243 M1246,21h-158v158h158V21L1246,21z"/>
</g>
<g>
	<path d="M1180.71,76.01h-21.02l-0.43,13.33c0.96-0.34,2.03-0.58,3.2-0.73c1.18-0.15,2.29-0.22,3.35-0.22c2.45,0,4.72,0.37,6.8,1.12
		c2.09,0.75,3.89,1.82,5.4,3.21c1.51,1.4,2.7,3.09,3.56,5.09c0.86,2,1.3,4.22,1.3,6.67c0,2.69-0.46,5.12-1.37,7.29
		c-0.91,2.16-2.16,4-3.74,5.52c-1.58,1.52-3.46,2.69-5.62,3.54c-2.16,0.84-4.51,1.26-7.06,1.26c-3.98,0-7.34-0.92-10.08-2.77
		c-2.74-1.85-4.8-4.33-6.19-7.45l6.34-2.52c0.82,2.06,2.1,3.72,3.85,4.97c1.75,1.25,3.78,1.87,6.08,1.87c1.49,0,2.88-0.26,4.18-0.79
		c1.29-0.53,2.42-1.27,3.38-2.23c0.96-0.96,1.72-2.11,2.27-3.46c0.55-1.34,0.83-2.83,0.83-4.46c0-1.92-0.32-3.59-0.97-5
		c-0.65-1.42-1.53-2.58-2.63-3.49c-1.1-0.91-2.38-1.58-3.82-2.02s-2.95-0.65-4.54-0.65c-1.92,0-3.89,0.26-5.9,0.79
		c-2.02,0.53-3.82,1.2-5.4,2.02l0.72-27.07h27.5V76.01z"/>
</g>
<g>
	<rect x="1277.5" y="22.5" class="st0" width="155" height="155"/>
	<path d="M1431,24v152h-152V24H1431 M1434,21h-158v158h158V21L1434,21z"/>
</g>
<g>
	<path d="M1350.06,90.34l0.07,0.14c0.72-0.43,1.68-0.77,2.88-1.01c1.2-0.24,2.35-0.36,3.46-0.36c2.21,0,4.29,0.4,6.23,1.19
		s3.64,1.9,5.08,3.31c1.44,1.42,2.57,3.11,3.38,5.08c0.82,1.97,1.22,4.1,1.22,6.41c0,2.54-0.44,4.86-1.33,6.95s-2.12,3.88-3.71,5.36
		c-1.58,1.49-3.45,2.64-5.58,3.46c-2.14,0.82-4.45,1.22-6.95,1.22c-2.54,0-4.9-0.42-7.05-1.26c-2.16-0.84-4.02-2-5.58-3.49
		c-1.56-1.49-2.79-3.26-3.67-5.33c-0.89-2.06-1.33-4.29-1.33-6.7c0-2.78,0.46-5.3,1.37-7.56c0.91-2.26,2.11-4.56,3.6-6.91
		l13.32-21.02h8.28L1350.06,90.34z M1344.22,105.39c0,1.49,0.25,2.89,0.76,4.21c0.5,1.32,1.22,2.46,2.16,3.42
		c0.94,0.96,2.05,1.73,3.35,2.3c1.3,0.58,2.74,0.86,4.32,0.86s3.01-0.26,4.29-0.79c1.27-0.53,2.38-1.28,3.31-2.27
		c0.94-0.98,1.66-2.14,2.16-3.46c0.5-1.32,0.76-2.77,0.76-4.36c0-1.54-0.25-2.95-0.76-4.25s-1.2-2.42-2.09-3.38
		c-0.89-0.96-1.98-1.7-3.28-2.23c-1.3-0.53-2.74-0.79-4.32-0.79s-3.04,0.26-4.36,0.79c-1.32,0.53-2.45,1.27-3.38,2.23
		c-0.94,0.96-1.66,2.09-2.16,3.38C1344.48,102.37,1344.22,103.81,1344.22,105.39z"/>
</g>
<g>
	<rect x="1465.5" y="22.5" class="st0" width="155" height="155"/>
	<path d="M1619,24v152h-152V24H1619 M1622,21h-158v158h158V21L1622,21z"/>
</g>
<g>
	<path d="M1558.51,76.16l-20.45,44.64h-7.99l21.24-44.78h-25.27v-6.19h32.47V76.16z"/>
</g>
<g>
	<rect x="1653.5" y="22.5" class="st1" width="155" height="155"/>
	<g>
		<path d="M1807,24v152h-152V24H1807 M1810,21h-158v158h158V21L1810,21z"/>
	</g>
</g>
<g>
	<path d="M1738.3,93.94c1.34,0.34,2.6,0.9,3.78,1.69c1.18,0.79,2.2,1.74,3.06,2.84c0.87,1.1,1.55,2.38,2.05,3.82
		s0.76,2.98,0.76,4.61c0,2.4-0.46,4.54-1.37,6.41c-0.91,1.87-2.15,3.46-3.71,4.75c-1.56,1.3-3.37,2.29-5.44,2.99
		c-2.06,0.7-4.25,1.04-6.55,1.04c-2.3,0-4.5-0.35-6.59-1.04s-3.91-1.69-5.47-2.99c-1.56-1.3-2.8-2.88-3.71-4.75
		c-0.91-1.87-1.37-4.01-1.37-6.41c0-1.68,0.25-3.24,0.76-4.68c0.5-1.44,1.2-2.71,2.09-3.82c0.89-1.1,1.92-2.03,3.1-2.77
		c1.18-0.74,2.41-1.31,3.71-1.69V93.8c-2.3-0.82-4.19-2.21-5.65-4.18c-1.46-1.97-2.2-4.37-2.2-7.2c0-2.11,0.41-4.02,1.22-5.72
		c0.82-1.7,1.92-3.17,3.31-4.39c1.39-1.22,3.01-2.16,4.86-2.81c1.85-0.65,3.83-0.97,5.94-0.97c2.06,0,4.03,0.32,5.9,0.97
		c1.87,0.65,3.49,1.56,4.86,2.74c1.37,1.18,2.46,2.62,3.28,4.32c0.81,1.7,1.22,3.61,1.22,5.72c0,2.78-0.73,5.21-2.2,7.27
		c-1.46,2.06-3.35,3.48-5.65,4.25V93.94z M1720.87,106.54c0,1.44,0.24,2.76,0.72,3.96c0.48,1.2,1.16,2.22,2.05,3.06
		c0.89,0.84,1.94,1.5,3.17,1.98c1.22,0.48,2.58,0.72,4.07,0.72c1.44,0,2.77-0.24,4-0.72c1.22-0.48,2.27-1.14,3.13-1.98
		c0.86-0.84,1.55-1.86,2.05-3.06c0.5-1.2,0.76-2.52,0.76-3.96c0-1.39-0.25-2.68-0.76-3.85c-0.5-1.18-1.19-2.2-2.05-3.06
		c-0.86-0.86-1.91-1.54-3.13-2.02c-1.22-0.48-2.56-0.72-4-0.72c-1.44,0-2.77,0.24-4,0.72c-1.22,0.48-2.28,1.15-3.17,2.02
		c-0.89,0.86-1.58,1.88-2.09,3.06C1721.12,103.87,1720.87,105.15,1720.87,106.54z M1722.46,82.6c0,1.16,0.21,2.24,0.62,3.25
		c0.41,1.01,0.99,1.89,1.74,2.64s1.64,1.34,2.67,1.77c1.04,0.43,2.16,0.65,3.36,0.65c1.16,0,2.24-0.22,3.25-0.65s1.9-1.02,2.67-1.77
		c0.77-0.75,1.37-1.63,1.81-2.64c0.43-1.01,0.65-2.1,0.65-3.25c0-1.21-0.23-2.33-0.69-3.36c-0.46-1.04-1.06-1.93-1.81-2.68
		c-0.75-0.75-1.63-1.33-2.64-1.73c-1.01-0.41-2.1-0.62-3.25-0.62c-1.21,0-2.33,0.21-3.36,0.62c-1.04,0.41-1.93,0.99-2.67,1.73
		s-1.33,1.64-1.74,2.68C1722.66,80.28,1722.46,81.4,1722.46,82.6z"/>
</g>
<g>
	<path d="M83.69,110.66h-7.13V59.68h7.13V110.66z"/>
	<path d="M101.84,76.53c0.1,0.86,0.17,1.84,0.22,2.92c0.05,1.08,0.07,1.98,0.07,2.7h0.22c0.43-0.91,1.02-1.76,1.76-2.56
		c0.74-0.79,1.6-1.49,2.56-2.09c0.96-0.6,2.02-1.07,3.17-1.4c1.15-0.33,2.35-0.5,3.6-0.5c2.21,0,4.1,0.37,5.69,1.12
		c1.58,0.75,2.9,1.74,3.96,2.99c1.06,1.25,1.84,2.71,2.34,4.39c0.5,1.68,0.76,3.48,0.76,5.4v21.17h-6.77V91.72
		c0-1.39-0.11-2.71-0.32-3.96c-0.22-1.25-0.61-2.35-1.19-3.31c-0.58-0.96-1.37-1.73-2.38-2.3c-1.01-0.58-2.3-0.86-3.89-0.86
		c-2.69,0-4.88,1.02-6.59,3.06c-1.7,2.04-2.56,4.76-2.56,8.17v18.14h-6.77V83.87c0-0.91-0.02-2.09-0.07-3.53
		c-0.05-1.44-0.12-2.71-0.22-3.82H101.84z"/>
	<path d="M144.39,127.94h-6.77V76.53h6.62v5.33h0.22c1.1-1.82,2.72-3.32,4.85-4.5c2.13-1.18,4.61-1.76,7.43-1.76
		c2.54,0,4.85,0.46,6.93,1.37c2.08,0.91,3.88,2.18,5.39,3.82c1.51,1.63,2.67,3.54,3.48,5.72c0.81,2.18,1.22,4.52,1.22,7.02
		c0,2.5-0.41,4.85-1.22,7.06c-0.81,2.21-1.96,4.13-3.45,5.76c-1.48,1.63-3.28,2.92-5.39,3.85c-2.11,0.94-4.48,1.4-7.11,1.4
		c-2.44,0-4.74-0.53-6.9-1.58c-2.16-1.06-3.86-2.54-5.1-4.46h-0.22V127.94z M166.85,93.52c0-1.58-0.24-3.12-0.72-4.61
		c-0.48-1.49-1.2-2.81-2.16-3.96c-0.96-1.15-2.15-2.06-3.56-2.74c-1.42-0.67-3.06-1.01-4.93-1.01c-1.73,0-3.3,0.34-4.72,1.01
		c-1.42,0.67-2.63,1.58-3.64,2.74c-1.01,1.15-1.79,2.47-2.34,3.96c-0.55,1.49-0.83,3.05-0.83,4.68c0,1.63,0.28,3.19,0.83,4.68
		c0.55,1.49,1.33,2.8,2.34,3.92c1.01,1.13,2.22,2.03,3.64,2.7c1.42,0.67,2.99,1.01,4.72,1.01c1.87,0,3.52-0.35,4.93-1.04
		c1.42-0.7,2.6-1.62,3.56-2.77c0.96-1.15,1.68-2.47,2.16-3.96C166.61,96.64,166.85,95.11,166.85,93.52z"/>
	<path d="M207.31,110.66c-0.1-0.86-0.17-1.84-0.22-2.92c-0.05-1.08-0.07-1.98-0.07-2.7h-0.14c-0.86,1.83-2.32,3.37-4.36,4.64
		c-2.04,1.27-4.31,1.91-6.8,1.91c-2.21,0-4.12-0.36-5.72-1.08c-1.61-0.72-2.93-1.72-3.96-2.99c-1.03-1.27-1.8-2.75-2.3-4.43
		c-0.5-1.68-0.76-3.48-0.76-5.4V76.53h6.77v18.86c0,1.39,0.11,2.73,0.32,4c0.22,1.27,0.61,2.39,1.19,3.35
		c0.58,0.96,1.37,1.73,2.38,2.3c1.01,0.58,2.3,0.86,3.89,0.86c2.74,0,4.94-1.02,6.62-3.06c1.68-2.04,2.52-4.76,2.52-8.17V76.53h6.77
		v26.78c0,0.91,0.02,2.09,0.07,3.53c0.05,1.44,0.12,2.71,0.22,3.82H207.31z"/>
	<path d="M241.87,82.07h-9.07V99.8c0,2.06,0.38,3.53,1.15,4.41c0.77,0.89,1.99,1.33,3.67,1.33c0.62,0,1.3-0.07,2.02-0.2
		c0.72-0.13,1.37-0.33,1.94-0.59l0.22,5.54c-0.82,0.29-1.72,0.52-2.7,0.68c-0.98,0.17-2,0.25-3.06,0.25c-3.22,0-5.68-0.89-7.38-2.66
		c-1.7-1.78-2.56-4.44-2.56-7.99v-18.5h-6.55v-5.54h6.55v-9.79h6.7v9.79h9.07V82.07z"/>
	<path d="M267.29,85.17c-0.77-1.25-1.85-2.27-3.24-3.06c-1.39-0.79-2.95-1.19-4.68-1.19c-0.77,0-1.54,0.08-2.3,0.25
		c-0.77,0.17-1.45,0.43-2.05,0.79c-0.6,0.36-1.08,0.82-1.44,1.37c-0.36,0.55-0.54,1.24-0.54,2.05c0,1.44,0.65,2.51,1.94,3.2
		c1.3,0.7,3.24,1.33,5.83,1.91c1.63,0.38,3.14,0.84,4.54,1.37c1.39,0.53,2.6,1.19,3.64,1.98c1.03,0.79,1.84,1.74,2.41,2.84
		c0.58,1.1,0.86,2.4,0.86,3.89c0,2.02-0.38,3.72-1.15,5.11c-0.77,1.39-1.79,2.53-3.06,3.42c-1.27,0.89-2.72,1.52-4.36,1.91
		c-1.63,0.38-3.31,0.58-5.04,0.58c-2.59,0-5.12-0.5-7.6-1.51c-2.47-1.01-4.52-2.54-6.16-4.61l4.82-4.1
		c0.91,1.34,2.17,2.47,3.78,3.38c1.61,0.91,3.37,1.37,5.29,1.37c0.86,0,1.69-0.08,2.48-0.25c0.79-0.17,1.51-0.44,2.16-0.83
		c0.65-0.38,1.16-0.89,1.55-1.51c0.38-0.62,0.58-1.42,0.58-2.38c0-1.58-0.76-2.76-2.27-3.53c-1.51-0.77-3.73-1.49-6.66-2.16
		c-1.15-0.29-2.32-0.64-3.49-1.04c-1.18-0.41-2.24-0.97-3.2-1.69c-0.96-0.72-1.74-1.62-2.34-2.7c-0.6-1.08-0.9-2.41-0.9-4
		c0-1.82,0.37-3.4,1.12-4.72c0.74-1.32,1.72-2.4,2.92-3.24c1.2-0.84,2.57-1.46,4.1-1.87c1.54-0.41,3.12-0.61,4.75-0.61
		c2.45,0,4.81,0.48,7.09,1.44c2.28,0.96,4.04,2.35,5.29,4.18L267.29,85.17z"/>
</g>
<g>
	<path d="M1893.26,106.34c0,1.25-0.46,2.35-1.37,3.31c-0.91,0.96-2.06,1.44-3.46,1.44c-1.34,0-2.48-0.47-3.42-1.4
		s-1.4-2.03-1.4-3.28c0-1.3,0.46-2.41,1.37-3.35s2.06-1.4,3.46-1.4c1.39,0,2.54,0.46,3.46,1.37
		C1892.81,103.94,1893.26,105.04,1893.26,106.34z"/>
	<path d="M1911.98,106.34c0,1.25-0.46,2.35-1.37,3.31c-0.91,0.96-2.06,1.44-3.46,1.44c-1.34,0-2.48-0.47-3.42-1.4
		s-1.4-2.03-1.4-3.28c0-1.3,0.46-2.41,1.37-3.35c0.91-0.94,2.06-1.4,3.46-1.4c1.39,0,2.54,0.46,3.46,1.37
		C1911.53,103.94,1911.98,105.04,1911.98,106.34z"/>
	<path d="M1930.7,106.34c0,1.25-0.46,2.35-1.37,3.31c-0.91,0.96-2.06,1.44-3.46,1.44c-1.34,0-2.48-0.47-3.42-1.4s-1.4-2.03-1.4-3.28
		c0-1.3,0.46-2.41,1.37-3.35s2.06-1.4,3.46-1.4c1.39,0,2.54,0.46,3.46,1.37C1930.25,103.94,1930.7,105.04,1930.7,106.34z"/>
</g>
<g>
	<path d="M1893.26,1013.34c0,1.25-0.46,2.35-1.37,3.31c-0.91,0.96-2.06,1.44-3.46,1.44c-1.34,0-2.48-0.47-3.42-1.4
		c-0.94-0.94-1.4-2.03-1.4-3.28c0-1.3,0.46-2.41,1.37-3.35c0.91-0.94,2.06-1.4,3.46-1.4c1.39,0,2.54,0.46,3.46,1.37
		C1892.81,1010.94,1893.26,1012.04,1893.26,1013.34z"/>
	<path d="M1911.98,1013.34c0,1.25-0.46,2.35-1.37,3.31c-0.91,0.96-2.06,1.44-3.46,1.44c-1.34,0-2.48-0.47-3.42-1.4
		c-0.94-0.94-1.4-2.03-1.4-3.28c0-1.3,0.46-2.41,1.37-3.35c0.91-0.94,2.06-1.4,3.46-1.4c1.39,0,2.54,0.46,3.46,1.37
		C1911.53,1010.94,1911.98,1012.04,1911.98,1013.34z"/>
	<path d="M1930.7,1013.34c0,1.25-0.46,2.35-1.37,3.31c-0.91,0.96-2.06,1.44-3.46,1.44c-1.34,0-2.48-0.47-3.42-1.4
		c-0.94-0.94-1.4-2.03-1.4-3.28c0-1.3,0.46-2.41,1.37-3.35c0.91-0.94,2.06-1.4,3.46-1.4c1.39,0,2.54,0.46,3.46,1.37
		C1930.25,1010.94,1930.7,1012.04,1930.7,1013.34z"/>
</g>
<g>
	<rect x="1118.5" y="491.5" class="st0" width="487" height="129"/>
	<g>
		<path d="M1604,493v126h-484V493H1604 M1607,490h-490v132h490V490L1607,490z"/>
	</g>
</g>
<g>
	<path d="M1247.5,552.29h0.14l22.75-22.46h9.86l-24.77,23.33l26.28,27.65h-10.22l-23.9-26.35h-0.14v26.35h-7.13v-50.98h7.13V552.29z
		"/>
	<path d="M1317.2,563.45c0,0.38,0,0.77,0,1.15c0,0.38-0.02,0.77-0.07,1.15h-27.14c0.05,1.43,0.37,2.78,0.97,4.04
		c0.6,1.26,1.4,2.36,2.41,3.29s2.17,1.66,3.49,2.18c1.32,0.52,2.72,0.79,4.21,0.79c2.3,0,4.29-0.5,5.98-1.51
		c1.68-1.01,3-2.23,3.96-3.67l4.75,3.82c-1.82,2.42-3.97,4.2-6.44,5.34c-2.47,1.14-5.22,1.71-8.24,1.71c-2.59,0-4.99-0.43-7.2-1.3
		c-2.21-0.86-4.1-2.08-5.69-3.64c-1.58-1.56-2.83-3.44-3.74-5.65s-1.37-4.66-1.37-7.34c0-2.64,0.44-5.08,1.33-7.31
		c0.89-2.23,2.13-4.14,3.71-5.72c1.59-1.58,3.46-2.82,5.63-3.71s4.5-1.33,7-1.33c2.5,0,4.77,0.41,6.82,1.22
		c2.04,0.82,3.78,1.99,5.2,3.53c1.42,1.54,2.51,3.4,3.28,5.58S1317.2,560.71,1317.2,563.45z M1310.29,560.71
		c-0.05-1.34-0.28-2.6-0.68-3.78c-0.41-1.18-1.01-2.2-1.8-3.06c-0.79-0.86-1.78-1.55-2.95-2.05c-1.18-0.5-2.56-0.76-4.14-0.76
		c-1.44,0-2.8,0.25-4.07,0.76c-1.27,0.5-2.38,1.19-3.31,2.05c-0.94,0.87-1.71,1.88-2.3,3.06c-0.6,1.18-0.95,2.44-1.04,3.78H1310.29z
		"/>
	<path d="M1326.49,550.49c-0.05-1.44-0.12-2.71-0.22-3.82h6.41c0.1,0.86,0.17,1.86,0.22,2.99c0.05,1.13,0.07,2.05,0.07,2.77h0.22
		c0.96-2.02,2.36-3.64,4.21-4.86c1.85-1.22,3.92-1.84,6.23-1.84c1.06,0,1.94,0.1,2.66,0.29l-0.29,6.26
		c-0.96-0.24-1.99-0.36-3.1-0.36c-1.63,0-3.05,0.3-4.25,0.9c-1.2,0.6-2.2,1.4-2.99,2.41c-0.79,1.01-1.38,2.17-1.76,3.49
		c-0.38,1.32-0.58,2.7-0.58,4.14v17.93h-6.77v-26.78C1326.56,553.1,1326.53,551.93,1326.49,550.49z"/>
	<path d="M1358.74,546.67c0.1,0.86,0.17,1.84,0.22,2.92s0.07,1.98,0.07,2.7h0.22c0.43-0.91,1.02-1.76,1.76-2.55
		c0.74-0.79,1.6-1.49,2.56-2.09c0.96-0.6,2.02-1.07,3.17-1.4s2.35-0.5,3.6-0.5c2.21,0,4.1,0.37,5.69,1.12
		c1.58,0.75,2.9,1.74,3.96,2.99c1.05,1.25,1.84,2.71,2.34,4.39s0.76,3.48,0.76,5.4v21.17h-6.77v-18.94c0-1.39-0.11-2.71-0.32-3.96
		c-0.22-1.25-0.61-2.35-1.19-3.31c-0.58-0.96-1.37-1.73-2.38-2.3c-1.01-0.58-2.3-0.86-3.89-0.86c-2.69,0-4.88,1.02-6.59,3.06
		c-1.7,2.04-2.55,4.76-2.55,8.17v18.14h-6.77v-26.78c0-0.91-0.02-2.09-0.07-3.53c-0.05-1.44-0.12-2.71-0.22-3.82H1358.74z"/>
	<path d="M1426.42,563.45c0,0.38,0,0.77,0,1.15c0,0.38-0.02,0.77-0.07,1.15h-27.14c0.05,1.43,0.37,2.78,0.97,4.04
		c0.6,1.26,1.4,2.36,2.41,3.29s2.17,1.66,3.49,2.18c1.32,0.52,2.72,0.79,4.21,0.79c2.3,0,4.29-0.5,5.98-1.51
		c1.68-1.01,3-2.23,3.96-3.67l4.75,3.82c-1.82,2.42-3.97,4.2-6.44,5.34c-2.47,1.14-5.22,1.71-8.24,1.71c-2.59,0-4.99-0.43-7.2-1.3
		c-2.21-0.86-4.1-2.08-5.69-3.64c-1.58-1.56-2.83-3.44-3.74-5.65s-1.37-4.66-1.37-7.34c0-2.64,0.44-5.08,1.33-7.31
		c0.89-2.23,2.13-4.14,3.71-5.72c1.59-1.58,3.46-2.82,5.63-3.71s4.5-1.33,7-1.33c2.5,0,4.77,0.41,6.82,1.22
		c2.04,0.82,3.78,1.99,5.2,3.53c1.42,1.54,2.51,3.4,3.28,5.58S1426.42,560.71,1426.42,563.45z M1419.51,560.71
		c-0.05-1.34-0.28-2.6-0.68-3.78c-0.41-1.18-1.01-2.2-1.8-3.06c-0.79-0.86-1.78-1.55-2.95-2.05c-1.18-0.5-2.56-0.76-4.14-0.76
		c-1.44,0-2.8,0.25-4.07,0.76c-1.27,0.5-2.38,1.19-3.31,2.05c-0.94,0.87-1.71,1.88-2.3,3.06c-0.6,1.18-0.95,2.44-1.04,3.78H1419.51z
		"/>
	<path d="M1442.69,580.8h-6.77v-54.43h6.77V580.8z"/>
	<path d="M1504.25,580.8h-33.26v-6.7l20.3-20.16c1.54-1.58,2.86-3.24,3.96-4.97c1.1-1.73,1.66-3.67,1.66-5.83
		c0-1.34-0.24-2.56-0.72-3.64c-0.48-1.08-1.13-2-1.94-2.77c-0.82-0.77-1.78-1.36-2.88-1.76c-1.1-0.41-2.28-0.61-3.53-0.61
		c-2.59,0-4.73,0.83-6.41,2.48c-1.68,1.66-2.74,3.78-3.17,6.37l-6.84-1.15c0.29-1.92,0.9-3.71,1.84-5.37
		c0.94-1.66,2.12-3.1,3.56-4.32c1.44-1.22,3.11-2.17,5-2.84c1.9-0.67,3.92-1.01,6.08-1.01c2.11,0,4.14,0.31,6.08,0.94
		c1.94,0.62,3.66,1.54,5.15,2.74c1.49,1.2,2.67,2.71,3.56,4.54c0.89,1.82,1.33,3.91,1.33,6.26c0,1.63-0.22,3.14-0.65,4.54
		c-0.43,1.39-1.02,2.71-1.76,3.96c-0.75,1.25-1.62,2.44-2.63,3.56c-1.01,1.13-2.06,2.25-3.17,3.35l-16.56,16.13h24.98V580.8z"/>
</g>
<g>
	<g>
		<path class="st2" d="M414.84,189.5c0,191,772.86,9.03,846.1,244.64"/>
		<g>
			<polygon points="1232.15,431.04 1266.5,472.5 1285.24,422.02 			"/>
		</g>
	</g>
</g>
<g>
	<g>
		<line class="st2" x1="1173.5" y1="192.5" x2="1168.31" y2="440.76"/>
		<g>
			<polygon points="1141.55,432.32 1167.5,479.5 1195.39,433.44 			"/>
		</g>
	</g>
</g>
<g>
	<g>
		<line class="st2" x1="1354.5" y1="189.5" x2="1354.5" y2="441.25"/>
		<g>
			<polygon points="1327.57,433.37 1354.5,480 1381.43,433.37 			"/>
		</g>
	</g>
</g>
<g>
	<g>
		<line class="st2" x1="1542.5" y1="189.5" x2="1542.5" y2="441.25"/>
		<g>
			<polygon points="1515.57,433.37 1542.5,480 1569.43,433.37 			"/>
		</g>
	</g>
</g>
<g>
	<g>
		<line class="st2" x1="603.5" y1="189.5" x2="603.5" y2="440.75"/>
		<g>
			<polygon points="576.57,432.87 603.5,479.5 630.43,432.87 			"/>
		</g>
	</g>
</g>
<g>
	<g>
		<line class="st2" x1="783.5" y1="189.5" x2="783.5" y2="433.25"/>
		<g>
			<polygon points="756.57,425.37 783.5,472 810.43,425.37 			"/>
		</g>
	</g>
</g>
<g>
	<g>
		<line class="st2" x1="978.5" y1="189.5" x2="979.37" y2="441.25"/>
		<g>
			<polygon points="952.41,433.46 979.5,480 1006.27,433.28 			"/>
		</g>
	</g>
</g>
<g>
	<g>
		<path class="st2" d="M1731.5,189.5c0,168.65-790.76,5.93-865.37,243.66"/>
		<g>
			<polygon points="841.86,420.98 860.5,471.5 894.93,430.1 			"/>
		</g>
	</g>
</g>
<g>
	<rect x="539.5" y="491.5" class="st1" width="487" height="129"/>
	<path d="M1025,493v126H541V493H1025 M1028,490H538v132h490V490L1028,490z"/>
</g>
<g>
	<path d="M666.5,552.29h0.14l22.75-22.46h9.86l-24.77,23.33l26.28,27.65h-10.22l-23.9-26.35h-0.14v26.35h-7.13v-50.98h7.13V552.29z"
		/>
	<path d="M736.2,563.45c0,0.38,0,0.77,0,1.15c0,0.38-0.02,0.77-0.07,1.15h-27.14c0.05,1.43,0.37,2.78,0.97,4.04
		c0.6,1.26,1.4,2.36,2.41,3.29s2.17,1.66,3.49,2.18c1.32,0.52,2.72,0.79,4.21,0.79c2.3,0,4.29-0.5,5.98-1.51
		c1.68-1.01,3-2.23,3.96-3.67l4.75,3.82c-1.82,2.42-3.97,4.2-6.44,5.34c-2.47,1.14-5.22,1.71-8.24,1.71c-2.59,0-4.99-0.43-7.2-1.3
		c-2.21-0.86-4.1-2.08-5.69-3.64c-1.58-1.56-2.83-3.44-3.74-5.65c-0.91-2.21-1.37-4.66-1.37-7.34c0-2.64,0.44-5.08,1.33-7.31
		c0.89-2.23,2.13-4.14,3.72-5.72c1.59-1.58,3.46-2.82,5.63-3.71s4.5-1.33,7-1.33c2.5,0,4.77,0.41,6.82,1.22
		c2.04,0.82,3.78,1.99,5.2,3.53c1.42,1.54,2.51,3.4,3.28,5.58S736.2,560.71,736.2,563.45z M729.29,560.71
		c-0.05-1.34-0.28-2.6-0.68-3.78c-0.41-1.18-1.01-2.2-1.8-3.06c-0.79-0.86-1.78-1.55-2.95-2.05c-1.18-0.5-2.56-0.76-4.14-0.76
		c-1.44,0-2.8,0.25-4.07,0.76c-1.27,0.5-2.38,1.19-3.31,2.05c-0.94,0.87-1.7,1.88-2.3,3.06c-0.6,1.18-0.95,2.44-1.04,3.78H729.29z"
		/>
	<path d="M745.49,550.49c-0.05-1.44-0.12-2.71-0.22-3.82h6.41c0.1,0.86,0.17,1.86,0.22,2.99c0.05,1.13,0.07,2.05,0.07,2.77h0.22
		c0.96-2.02,2.36-3.64,4.21-4.86c1.85-1.22,3.92-1.84,6.23-1.84c1.06,0,1.94,0.1,2.66,0.29l-0.29,6.26
		c-0.96-0.24-1.99-0.36-3.1-0.36c-1.63,0-3.05,0.3-4.25,0.9c-1.2,0.6-2.2,1.4-2.99,2.41s-1.38,2.17-1.76,3.49
		c-0.38,1.32-0.58,2.7-0.58,4.14v17.93h-6.77v-26.78C745.56,553.1,745.53,551.93,745.49,550.49z"/>
	<path d="M777.74,546.67c0.1,0.86,0.17,1.84,0.22,2.92c0.05,1.08,0.07,1.98,0.07,2.7h0.22c0.43-0.91,1.02-1.76,1.76-2.55
		c0.74-0.79,1.6-1.49,2.56-2.09c0.96-0.6,2.02-1.07,3.17-1.4c1.15-0.34,2.35-0.5,3.6-0.5c2.21,0,4.1,0.37,5.69,1.12
		c1.58,0.75,2.9,1.74,3.96,2.99c1.06,1.25,1.84,2.71,2.34,4.39c0.5,1.68,0.76,3.48,0.76,5.4v21.17h-6.77v-18.94
		c0-1.39-0.11-2.71-0.32-3.96c-0.22-1.25-0.61-2.35-1.19-3.31c-0.58-0.96-1.37-1.73-2.38-2.3c-1.01-0.58-2.3-0.86-3.89-0.86
		c-2.69,0-4.88,1.02-6.59,3.06c-1.7,2.04-2.56,4.76-2.56,8.17v18.14h-6.77v-26.78c0-0.91-0.02-2.09-0.07-3.53
		c-0.05-1.44-0.12-2.71-0.22-3.82H777.74z"/>
	<path d="M845.42,563.45c0,0.38,0,0.77,0,1.15c0,0.38-0.02,0.77-0.07,1.15H818.2c0.05,1.43,0.37,2.78,0.97,4.04
		c0.6,1.26,1.4,2.36,2.41,3.29s2.17,1.66,3.49,2.18c1.32,0.52,2.72,0.79,4.21,0.79c2.3,0,4.29-0.5,5.98-1.51
		c1.68-1.01,3-2.23,3.96-3.67l4.75,3.82c-1.82,2.42-3.97,4.2-6.44,5.34c-2.47,1.14-5.22,1.71-8.24,1.71c-2.59,0-4.99-0.43-7.2-1.3
		c-2.21-0.86-4.1-2.08-5.69-3.64c-1.58-1.56-2.83-3.44-3.74-5.65c-0.91-2.21-1.37-4.66-1.37-7.34c0-2.64,0.44-5.08,1.33-7.31
		c0.89-2.23,2.13-4.14,3.72-5.72c1.59-1.58,3.46-2.82,5.63-3.71s4.5-1.33,7-1.33c2.5,0,4.77,0.41,6.82,1.22
		c2.04,0.82,3.78,1.99,5.2,3.53c1.42,1.54,2.51,3.4,3.28,5.58S845.42,560.71,845.42,563.45z M838.51,560.71
		c-0.05-1.34-0.28-2.6-0.68-3.78c-0.41-1.18-1.01-2.2-1.8-3.06c-0.79-0.86-1.78-1.55-2.95-2.05c-1.18-0.5-2.56-0.76-4.14-0.76
		c-1.44,0-2.8,0.25-4.07,0.76c-1.27,0.5-2.38,1.19-3.31,2.05c-0.94,0.87-1.7,1.88-2.3,3.06c-0.6,1.18-0.95,2.44-1.04,3.78H838.51z"
		/>
	<path d="M861.69,580.8h-6.77v-54.43h6.77V580.8z"/>
	<path d="M912.88,580.8h-6.91v-42.48l-9.65,8.06l-4.1-4.82l14.46-11.74h6.2V580.8z"/>
</g>
<g>
	<rect x="337.5" y="929.5" class="st0" width="155" height="155"/>
	<path d="M491,931v152H339V931H491 M494,928H336v158h158V928L494,928z"/>
</g>
<g>
	<path d="M420.64,1027.8h-6.91v-42.48l-9.65,8.06l-4.1-4.82l14.46-11.74h6.2V1027.8z"/>
</g>
<g>
	<rect x="525.5" y="929.5" class="st1" width="155" height="155"/>
	<path d="M679,931v152H527V931H679 M682,928H524v158h158V928L682,928z"/>
</g>
<g>
	<path d="M619.01,1027.8h-33.26v-6.7l20.3-20.16c1.54-1.58,2.86-3.24,3.96-4.97c1.1-1.73,1.66-3.67,1.66-5.83
		c0-1.34-0.24-2.56-0.72-3.64c-0.48-1.08-1.13-2-1.94-2.77c-0.82-0.77-1.78-1.36-2.88-1.76c-1.1-0.41-2.28-0.61-3.53-0.61
		c-2.59,0-4.73,0.83-6.41,2.48c-1.68,1.66-2.74,3.78-3.17,6.37l-6.84-1.15c0.29-1.92,0.9-3.71,1.84-5.37
		c0.94-1.66,2.12-3.1,3.56-4.32s3.11-2.17,5-2.84c1.9-0.67,3.92-1.01,6.08-1.01c2.11,0,4.14,0.31,6.08,0.94
		c1.94,0.62,3.66,1.54,5.15,2.74c1.49,1.2,2.68,2.71,3.56,4.54c0.89,1.82,1.33,3.91,1.33,6.26c0,1.63-0.22,3.14-0.65,4.54
		c-0.43,1.39-1.02,2.71-1.76,3.96c-0.74,1.25-1.62,2.44-2.63,3.56c-1.01,1.13-2.06,2.25-3.17,3.35l-16.56,16.13h24.98V1027.8z"/>
</g>
<g>
	<rect x="713.5" y="929.5" class="st1" width="155" height="155"/>
	<path d="M867,931v152H715V931H867 M870,928H712v158h158V928L870,928z"/>
</g>
<g>
	<path d="M784.76,998.35h2.23c1.44,0,2.84-0.13,4.21-0.4c1.37-0.27,2.58-0.72,3.64-1.37c1.06-0.65,1.91-1.53,2.56-2.64
		s0.97-2.48,0.97-4.12c0-1.3-0.24-2.47-0.72-3.51c-0.48-1.04-1.14-1.92-1.98-2.64c-0.84-0.72-1.8-1.29-2.88-1.7
		c-1.08-0.41-2.22-0.62-3.42-0.62c-2.16,0-4,0.55-5.51,1.66c-1.51,1.11-2.65,2.64-3.42,4.61l-6.34-2.23
		c1.25-3.07,3.25-5.48,6.01-7.24c2.76-1.75,5.94-2.63,9.54-2.63c2.11,0,4.12,0.3,6.01,0.9c1.9,0.6,3.56,1.48,4.98,2.63
		c1.42,1.15,2.55,2.59,3.38,4.33s1.25,3.73,1.25,5.99c0,1.44-0.23,2.79-0.68,4.04c-0.46,1.25-1.08,2.38-1.87,3.39
		s-1.74,1.88-2.84,2.6c-1.1,0.72-2.3,1.25-3.6,1.59v0.14c1.49,0.29,2.87,0.79,4.14,1.51c1.27,0.72,2.36,1.62,3.28,2.7
		c0.91,1.08,1.63,2.31,2.16,3.7c0.53,1.39,0.79,2.9,0.79,4.53c0,2.54-0.48,4.78-1.43,6.72c-0.95,1.94-2.21,3.56-3.78,4.85
		c-1.57,1.29-3.39,2.28-5.45,2.95c-2.06,0.67-4.18,1.01-6.34,1.01c-4.03,0-7.58-0.91-10.66-2.74c-3.07-1.82-5.3-4.65-6.7-8.5
		l6.48-2.16c0.77,2.21,2.08,4.01,3.92,5.4c1.85,1.39,4.12,2.09,6.8,2.09c1.3,0,2.56-0.2,3.78-0.61c1.22-0.41,2.31-1.02,3.28-1.84
		c0.96-0.82,1.73-1.82,2.3-3.02c0.58-1.2,0.86-2.62,0.86-4.25c0-1.77-0.38-3.26-1.15-4.46c-0.77-1.2-1.76-2.17-2.99-2.92
		c-1.22-0.74-2.6-1.27-4.14-1.58c-1.54-0.31-3.05-0.47-4.54-0.47h-2.16V998.35z"/>
</g>
<g>
	<rect x="901.5" y="929.5" class="st1" width="155" height="155"/>
	<path d="M1055,931v152H903V931H1055 M1058,928H900v158h158V928L1058,928z"/>
</g>
<g>
	<path d="M989.9,1010.37h7.34v5.98h-7.34v11.45h-6.77v-11.45h-23.47v-6.34l21.67-33.19h8.57V1010.37z M983.13,984.81h-0.14
		l-16.13,25.56h16.27V984.81z"/>
</g>
<g>
	<rect x="1089.5" y="929.5" class="st0" width="155" height="155"/>
	<path d="M1243,931v152h-152V931H1243 M1246,928h-158v158h158V928L1246,928z"/>
</g>
<g>
	<path d="M1180.71,983.01h-21.02l-0.43,13.33c0.96-0.34,2.03-0.58,3.2-0.73c1.18-0.15,2.29-0.22,3.35-0.22
		c2.45,0,4.72,0.37,6.8,1.12c2.09,0.75,3.89,1.82,5.4,3.21c1.51,1.4,2.7,3.09,3.56,5.09s1.3,4.22,1.3,6.67
		c0,2.69-0.46,5.12-1.37,7.29c-0.91,2.17-2.16,4-3.74,5.52s-3.46,2.69-5.62,3.54c-2.16,0.84-4.51,1.26-7.06,1.26
		c-3.98,0-7.34-0.92-10.08-2.77c-2.74-1.85-4.8-4.33-6.19-7.45l6.34-2.52c0.82,2.06,2.1,3.72,3.85,4.97
		c1.75,1.25,3.78,1.87,6.08,1.87c1.49,0,2.88-0.26,4.18-0.79c1.29-0.53,2.42-1.27,3.38-2.23c0.96-0.96,1.72-2.11,2.27-3.46
		c0.55-1.34,0.83-2.83,0.83-4.46c0-1.92-0.32-3.59-0.97-5c-0.65-1.42-1.53-2.58-2.63-3.49s-2.38-1.58-3.82-2.02
		c-1.44-0.43-2.95-0.65-4.54-0.65c-1.92,0-3.89,0.26-5.9,0.79c-2.02,0.53-3.82,1.2-5.4,2.02l0.72-27.07h27.5V983.01z"/>
</g>
<g>
	<rect x="1277.5" y="929.5" class="st0" width="155" height="155"/>
	<path d="M1431,931v152h-152V931H1431 M1434,928h-158v158h158V928L1434,928z"/>
</g>
<g>
	<path d="M1350.06,997.34l0.07,0.14c0.72-0.43,1.68-0.77,2.88-1.01c1.2-0.24,2.35-0.36,3.46-0.36c2.21,0,4.29,0.4,6.23,1.19
		s3.64,1.9,5.08,3.31c1.44,1.42,2.57,3.11,3.38,5.08c0.82,1.97,1.22,4.1,1.22,6.41c0,2.54-0.44,4.86-1.33,6.95s-2.12,3.88-3.71,5.36
		c-1.58,1.49-3.45,2.64-5.58,3.46c-2.14,0.82-4.45,1.22-6.95,1.22c-2.54,0-4.9-0.42-7.05-1.26c-2.16-0.84-4.02-2-5.58-3.49
		c-1.56-1.49-2.79-3.26-3.67-5.33c-0.89-2.06-1.33-4.29-1.33-6.7c0-2.78,0.46-5.3,1.37-7.56c0.91-2.26,2.11-4.56,3.6-6.91
		l13.32-21.02h8.28L1350.06,997.34z M1344.22,1012.39c0,1.49,0.25,2.89,0.76,4.21c0.5,1.32,1.22,2.46,2.16,3.42
		c0.94,0.96,2.05,1.73,3.35,2.3s2.74,0.86,4.32,0.86s3.01-0.26,4.29-0.79c1.27-0.53,2.38-1.28,3.31-2.27
		c0.94-0.98,1.66-2.14,2.16-3.46s0.76-2.77,0.76-4.36c0-1.54-0.25-2.95-0.76-4.25c-0.5-1.3-1.2-2.42-2.09-3.38
		c-0.89-0.96-1.98-1.7-3.28-2.23c-1.3-0.53-2.74-0.79-4.32-0.79s-3.04,0.26-4.36,0.79c-1.32,0.53-2.45,1.27-3.38,2.23
		c-0.94,0.96-1.66,2.09-2.16,3.38C1344.48,1009.37,1344.22,1010.81,1344.22,1012.39z"/>
</g>
<g>
	<rect x="1465.5" y="929.5" class="st0" width="155" height="155"/>
	<path d="M1619,931v152h-152V931H1619 M1622,928h-158v158h158V928L1622,928z"/>
</g>
<g>
	<path d="M1558.51,983.16l-20.45,44.64h-7.99l21.24-44.78h-25.27v-6.19h32.47V983.16z"/>
</g>
<g>
	<rect x="1653.5" y="929.5" class="st1" width="155" height="155"/>
	<g>
		<path d="M1807,931v152h-152V931H1807 M1810,928h-158v158h158V928L1810,928z"/>
	</g>
</g>
<g>
	<path d="M1738.3,1000.94c1.34,0.34,2.6,0.9,3.78,1.69c1.18,0.79,2.2,1.74,3.06,2.84c0.87,1.1,1.55,2.38,2.05,3.82
		s0.76,2.98,0.76,4.61c0,2.4-0.46,4.54-1.37,6.41c-0.91,1.87-2.15,3.46-3.71,4.75c-1.56,1.29-3.37,2.29-5.44,2.99
		c-2.06,0.7-4.25,1.04-6.55,1.04c-2.3,0-4.5-0.35-6.59-1.04s-3.91-1.69-5.47-2.99c-1.56-1.3-2.8-2.88-3.71-4.75
		c-0.91-1.87-1.37-4.01-1.37-6.41c0-1.68,0.25-3.24,0.76-4.68c0.5-1.44,1.2-2.71,2.09-3.82c0.89-1.1,1.92-2.03,3.1-2.77
		c1.18-0.74,2.41-1.31,3.71-1.69v-0.14c-2.3-0.82-4.19-2.21-5.65-4.18c-1.46-1.97-2.2-4.37-2.2-7.2c0-2.11,0.41-4.02,1.22-5.72
		c0.82-1.7,1.92-3.17,3.31-4.39c1.39-1.22,3.01-2.16,4.86-2.81c1.85-0.65,3.83-0.97,5.94-0.97c2.06,0,4.03,0.32,5.9,0.97
		s3.49,1.56,4.86,2.74s2.46,2.62,3.28,4.32c0.81,1.7,1.22,3.61,1.22,5.72c0,2.79-0.73,5.21-2.2,7.27c-1.46,2.06-3.35,3.48-5.65,4.25
		V1000.94z M1720.87,1013.54c0,1.44,0.24,2.76,0.72,3.96c0.48,1.2,1.16,2.22,2.05,3.06c0.89,0.84,1.94,1.5,3.17,1.98
		c1.22,0.48,2.58,0.72,4.07,0.72c1.44,0,2.77-0.24,4-0.72c1.22-0.48,2.27-1.14,3.13-1.98c0.86-0.84,1.55-1.86,2.05-3.06
		c0.5-1.2,0.76-2.52,0.76-3.96c0-1.39-0.25-2.67-0.76-3.85c-0.5-1.18-1.19-2.2-2.05-3.06c-0.86-0.86-1.91-1.54-3.13-2.02
		c-1.22-0.48-2.56-0.72-4-0.72c-1.44,0-2.77,0.24-4,0.72c-1.22,0.48-2.28,1.15-3.17,2.02s-1.58,1.88-2.09,3.06
		C1721.12,1010.87,1720.87,1012.15,1720.87,1013.54z M1722.46,989.6c0,1.16,0.21,2.24,0.62,3.25c0.41,1.01,0.99,1.89,1.74,2.64
		c0.75,0.75,1.64,1.34,2.67,1.77c1.04,0.43,2.16,0.65,3.36,0.65c1.16,0,2.24-0.22,3.25-0.65s1.9-1.03,2.67-1.77
		c0.77-0.75,1.37-1.63,1.81-2.64c0.43-1.01,0.65-2.1,0.65-3.25c0-1.21-0.23-2.33-0.69-3.36c-0.46-1.04-1.06-1.93-1.81-2.67
		c-0.75-0.75-1.63-1.33-2.64-1.74s-2.1-0.62-3.25-0.62c-1.21,0-2.33,0.21-3.36,0.62c-1.04,0.41-1.93,0.99-2.67,1.74
		c-0.75,0.75-1.33,1.64-1.74,2.67C1722.66,987.28,1722.46,988.4,1722.46,989.6z"/>
</g>
<g>
	<path d="M95.32,992.1c0,3.94-0.68,7.55-2.05,10.84c-1.37,3.29-3.25,6.12-5.65,8.5c-2.4,2.38-5.26,4.22-8.57,5.54
		c-3.31,1.32-6.91,1.98-10.8,1.98c-3.89,0-7.48-0.66-10.76-1.98c-3.29-1.32-6.13-3.17-8.53-5.54c-2.4-2.38-4.27-5.21-5.62-8.5
		c-1.34-3.29-2.02-6.9-2.02-10.84c0-3.98,0.67-7.62,2.02-10.91c1.34-3.29,3.21-6.1,5.62-8.42c2.4-2.33,5.24-4.14,8.53-5.44
		c3.29-1.29,6.88-1.94,10.76-1.94c3.89,0,7.49,0.65,10.8,1.94c3.31,1.3,6.17,3.11,8.57,5.44c2.4,2.33,4.28,5.14,5.65,8.42
		C94.64,984.48,95.32,988.12,95.32,992.1z M87.62,992.1c0-2.78-0.46-5.41-1.37-7.88c-0.91-2.47-2.21-4.64-3.89-6.52
		c-1.68-1.87-3.71-3.35-6.08-4.43c-2.38-1.08-5.05-1.62-8.03-1.62c-2.93,0-5.58,0.54-7.96,1.62c-2.38,1.08-4.39,2.56-6.05,4.43
		c-1.66,1.87-2.94,4.04-3.85,6.52c-0.91,2.47-1.37,5.1-1.37,7.88c0,2.83,0.46,5.5,1.37,7.99c0.91,2.5,2.21,4.67,3.89,6.52
		c1.68,1.85,3.7,3.3,6.05,4.36c2.35,1.06,4.99,1.58,7.92,1.58c2.93,0,5.59-0.53,7.99-1.58c2.4-1.06,4.44-2.51,6.12-4.36
		c1.68-1.85,2.98-4.02,3.89-6.52C87.16,997.6,87.62,994.93,87.62,992.1z"/>
	<path d="M128.73,1017.66c-0.1-0.86-0.17-1.84-0.22-2.92c-0.05-1.08-0.07-1.98-0.07-2.7h-0.14c-0.86,1.82-2.32,3.37-4.36,4.64
		c-2.04,1.27-4.31,1.91-6.8,1.91c-2.21,0-4.12-0.36-5.72-1.08c-1.61-0.72-2.93-1.72-3.96-2.99c-1.03-1.27-1.8-2.75-2.3-4.43
		c-0.5-1.68-0.76-3.48-0.76-5.4v-21.17h6.77v18.86c0,1.39,0.11,2.72,0.32,4c0.22,1.27,0.61,2.39,1.19,3.35
		c0.58,0.96,1.37,1.73,2.38,2.3c1.01,0.58,2.3,0.86,3.89,0.86c2.74,0,4.94-1.02,6.62-3.06c1.68-2.04,2.52-4.76,2.52-8.17v-18.14
		h6.77v26.78c0,0.91,0.02,2.09,0.07,3.53c0.05,1.44,0.12,2.71,0.22,3.82H128.73z"/>
	<path d="M163.29,989.07h-9.07v17.73c0,2.06,0.38,3.53,1.15,4.41c0.77,0.89,1.99,1.33,3.67,1.33c0.62,0,1.3-0.07,2.02-0.2
		c0.72-0.13,1.37-0.33,1.94-0.59l0.22,5.54c-0.82,0.29-1.72,0.52-2.7,0.68c-0.98,0.17-2,0.25-3.06,0.25c-3.22,0-5.68-0.89-7.38-2.66
		c-1.7-1.78-2.56-4.44-2.56-7.99v-18.5h-6.55v-5.54h6.55v-9.79h6.7v9.79h9.07V989.07z"/>
	<path d="M177.04,1034.94h-6.77v-51.41h6.62v5.33h0.22c1.1-1.82,2.72-3.32,4.85-4.5s4.61-1.76,7.43-1.76c2.54,0,4.85,0.46,6.93,1.37
		c2.08,0.91,3.88,2.18,5.39,3.82c1.51,1.63,2.67,3.54,3.48,5.72s1.22,4.52,1.22,7.02c0,2.5-0.41,4.85-1.22,7.06
		c-0.81,2.21-1.96,4.13-3.45,5.76c-1.48,1.63-3.28,2.92-5.39,3.85c-2.11,0.94-4.48,1.4-7.11,1.4c-2.44,0-4.74-0.53-6.9-1.58
		c-2.16-1.06-3.86-2.54-5.1-4.46h-0.22V1034.94z M199.5,1000.52c0-1.58-0.24-3.12-0.72-4.61c-0.48-1.49-1.2-2.81-2.16-3.96
		c-0.96-1.15-2.15-2.06-3.56-2.74c-1.42-0.67-3.06-1.01-4.93-1.01c-1.73,0-3.3,0.34-4.72,1.01c-1.42,0.67-2.63,1.58-3.64,2.74
		c-1.01,1.15-1.79,2.47-2.34,3.96c-0.55,1.49-0.83,3.05-0.83,4.68s0.28,3.19,0.83,4.68c0.55,1.49,1.33,2.8,2.34,3.92
		c1.01,1.13,2.22,2.03,3.64,2.7c1.42,0.67,2.99,1.01,4.72,1.01c1.87,0,3.52-0.35,4.93-1.04c1.42-0.7,2.6-1.62,3.56-2.77
		c0.96-1.15,1.68-2.47,2.16-3.96C199.26,1003.64,199.5,1002.11,199.5,1000.52z"/>
	<path d="M239.97,1017.66c-0.1-0.86-0.17-1.84-0.22-2.92c-0.05-1.08-0.07-1.98-0.07-2.7h-0.14c-0.86,1.82-2.32,3.37-4.36,4.64
		c-2.04,1.27-4.31,1.91-6.8,1.91c-2.21,0-4.12-0.36-5.72-1.08c-1.61-0.72-2.93-1.72-3.96-2.99c-1.03-1.27-1.8-2.75-2.3-4.43
		c-0.5-1.68-0.76-3.48-0.76-5.4v-21.17h6.77v18.86c0,1.39,0.11,2.72,0.32,4c0.22,1.27,0.61,2.39,1.19,3.35
		c0.58,0.96,1.37,1.73,2.38,2.3c1.01,0.58,2.3,0.86,3.89,0.86c2.74,0,4.94-1.02,6.62-3.06c1.68-2.04,2.52-4.76,2.52-8.17v-18.14
		h6.77v26.78c0,0.91,0.02,2.09,0.07,3.53c0.05,1.44,0.12,2.71,0.22,3.82H239.97z"/>
	<path d="M274.53,989.07h-9.07v17.73c0,2.06,0.38,3.53,1.15,4.41c0.77,0.89,1.99,1.33,3.67,1.33c0.62,0,1.3-0.07,2.02-0.2
		c0.72-0.13,1.37-0.33,1.94-0.59l0.22,5.54c-0.82,0.29-1.72,0.52-2.7,0.68c-0.98,0.17-2,0.25-3.06,0.25c-3.22,0-5.68-0.89-7.38-2.66
		c-1.7-1.78-2.56-4.44-2.56-7.99v-18.5h-6.55v-5.54h6.55v-9.79h6.7v9.79h9.07V989.07z"/>
	<path d="M299.94,992.17c-0.77-1.25-1.85-2.27-3.24-3.06c-1.39-0.79-2.95-1.19-4.68-1.19c-0.77,0-1.54,0.08-2.3,0.25
		c-0.77,0.17-1.45,0.43-2.05,0.79c-0.6,0.36-1.08,0.82-1.44,1.37c-0.36,0.55-0.54,1.24-0.54,2.05c0,1.44,0.65,2.51,1.94,3.2
		c1.3,0.7,3.24,1.33,5.83,1.91c1.63,0.38,3.14,0.84,4.54,1.37c1.39,0.53,2.6,1.19,3.64,1.98c1.03,0.79,1.84,1.74,2.41,2.84
		c0.58,1.1,0.86,2.4,0.86,3.89c0,2.02-0.38,3.72-1.15,5.11c-0.77,1.39-1.79,2.53-3.06,3.42c-1.27,0.89-2.72,1.52-4.36,1.91
		c-1.63,0.38-3.31,0.58-5.04,0.58c-2.59,0-5.12-0.5-7.6-1.51c-2.47-1.01-4.52-2.54-6.16-4.61l4.82-4.1
		c0.91,1.34,2.17,2.47,3.78,3.38c1.61,0.91,3.37,1.37,5.29,1.37c0.86,0,1.69-0.08,2.48-0.25s1.51-0.44,2.16-0.83
		c0.65-0.38,1.16-0.89,1.55-1.51c0.38-0.62,0.58-1.42,0.58-2.38c0-1.58-0.76-2.76-2.27-3.53c-1.51-0.77-3.73-1.49-6.66-2.16
		c-1.15-0.29-2.32-0.64-3.49-1.04c-1.18-0.41-2.24-0.97-3.2-1.69c-0.96-0.72-1.74-1.62-2.34-2.7c-0.6-1.08-0.9-2.41-0.9-4
		c0-1.82,0.37-3.4,1.12-4.72c0.74-1.32,1.72-2.4,2.92-3.24c1.2-0.84,2.57-1.46,4.1-1.87c1.54-0.41,3.12-0.61,4.75-0.61
		c2.45,0,4.81,0.48,7.09,1.44c2.28,0.96,4.04,2.35,5.29,4.18L299.94,992.17z"/>
</g>
<g>
	<g>
		<path class="st2" d="M427.08,881.23c104.24-136.41,839.42,26,839.42-246.23"/>
		<g>
			<polygon points="456.93,884.41 414.84,918 406.79,864.76 			"/>
		</g>
	</g>
</g>
<g>
	<g>
		<line class="st2" x1="1172.69" y1="876.26" x2="1167.5" y2="628"/>
		<g>
			<polygon points="1199.45,867.82 1173.5,915 1145.61,868.94 			"/>
		</g>
	</g>
</g>
<g>
	<g>
		<line class="st2" x1="1354.5" y1="879.25" x2="1354.5" y2="627.5"/>
		<g>
			<polygon points="1381.43,871.37 1354.5,918 1327.57,871.37 			"/>
		</g>
	</g>
</g>
<g>
	<g>
		<line class="st2" x1="1542.5" y1="879.25" x2="1542.5" y2="627.5"/>
		<g>
			<polygon points="1569.43,871.37 1542.5,918 1515.57,871.37 			"/>
		</g>
	</g>
</g>
<g>
	<g>
		<line class="st2" x1="603.5" y1="879.25" x2="603.5" y2="628"/>
		<g>
			<polygon points="630.43,871.37 603.5,918 576.57,871.37 			"/>
		</g>
	</g>
</g>
<g>
	<g>
		<line class="st2" x1="783.5" y1="879.25" x2="783.5" y2="635.5"/>
		<g>
			<polygon points="810.43,871.37 783.5,918 756.57,871.37 			"/>
		</g>
	</g>
</g>
<g>
	<g>
		<line class="st2" x1="978.63" y1="879.25" x2="979.5" y2="627.5"/>
		<g>
			<polygon points="1005.59,871.46 978.5,918 951.73,871.28 			"/>
		</g>
	</g>
</g>
<g>
	<g>
		<path class="st2" d="M1716.04,882.46C1599.27,767.71,860.5,905.84,860.5,636"/>
		<g>
			<polygon points="1734.38,864.23 1731.5,918 1686.37,888.63 			"/>
		</g>
	</g>
</g>
<g>
</g>
</svg>
