<?xml version="1.0" encoding="UTF-8" standalone="no"?>
<!DOCTYPE svg PUBLIC "-//W3C//DTD SVG 1.1//EN" "http://www.w3.org/Graphics/SVG/1.1/DTD/svg11.dtd">
<svg width="100%" height="100%" viewBox="0 0 723 298" version="1.1" xmlns="http://www.w3.org/2000/svg" xmlns:xlink="http://www.w3.org/1999/xlink" xml:space="preserve" xmlns:serif="http://www.serif.com/" style="fill-rule:evenodd;clip-rule:evenodd;stroke-linecap:round;stroke-linejoin:round;stroke-miterlimit:1.5;">
    <g id="Artboard1" transform="matrix(0.902828,0,0,0.755638,0,-50.9902)">
        <rect x="0" y="67.48" width="800" height="393.372" style="fill:none;"/>
        <clipPath id="_clip1">
            <rect x="0" y="67.48" width="800" height="393.372"/>
        </clipPath>
        <g clip-path="url(#_clip1)">
            <g transform="matrix(1.10763,0,0,1.32338,-86.1048,-148.398)">
                <circle cx="572.834" cy="312.671" r="128.275" style="fill:rgb(55,55,55);stroke:rgb(235,235,235);stroke-width:3px;"/>
            </g>
            <g transform="matrix(2.96721,0,0,3.54518,-1674.03,-843.631)">
                <circle cx="572.834" cy="312.671" r="128.275" style="fill:none;stroke:white;stroke-opacity:0.42;stroke-width:0.37px;"/>
            </g>
            <g transform="matrix(2.01726,-0.0353796,-0.00303092,2.23817,-78.9587,-513.703)">
                <path d="M62.684,347.85L258.588,302.068" style="fill:none;stroke:white;stroke-width:1.43px;"/>
            </g>
            <g transform="matrix(1.10763,0,0,1.32338,-256.97,-64.2917)">
                <g transform="matrix(30,0,0,30,248.814,234.231)">
                    <path d="M0.042,-0.23C0.042,-0.286 0.051,-0.332 0.07,-0.368C0.089,-0.404 0.118,-0.432 0.155,-0.45C0.193,-0.468 0.237,-0.478 0.287,-0.478C0.362,-0.478 0.42,-0.458 0.459,-0.418C0.498,-0.379 0.518,-0.321 0.518,-0.245C0.518,-0.201 0.512,-0.163 0.5,-0.131C0.489,-0.099 0.474,-0.073 0.455,-0.053C0.435,-0.033 0.415,-0.018 0.394,-0.008C0.358,0.009 0.317,0.017 0.272,0.017C0.198,0.017 0.142,-0.004 0.102,-0.046C0.062,-0.087 0.042,-0.149 0.042,-0.23ZM0.177,-0.254C0.177,-0.167 0.19,-0.106 0.215,-0.069C0.232,-0.044 0.256,-0.032 0.288,-0.032C0.314,-0.032 0.335,-0.042 0.351,-0.06C0.372,-0.085 0.382,-0.133 0.382,-0.204C0.382,-0.253 0.378,-0.296 0.37,-0.332C0.362,-0.367 0.349,-0.392 0.333,-0.406C0.317,-0.42 0.298,-0.427 0.275,-0.427C0.255,-0.427 0.238,-0.422 0.224,-0.412C0.209,-0.402 0.198,-0.384 0.189,-0.36C0.181,-0.336 0.177,-0.3 0.177,-0.254Z" style="fill:white;fill-rule:nonzero;"/>
                </g>
            </g>
            <g transform="matrix(1.10763,0,0,1.32338,158.842,-182.047)">
                <g transform="matrix(30,0,0,30,248.814,234.231)">
                    <path d="M0.221,-0.003L0.221,0.177C0.221,0.192 0.223,0.202 0.226,0.205C0.229,0.209 0.234,0.212 0.242,0.213C0.245,0.214 0.267,0.216 0.308,0.219L0.308,0.258L0.153,0.254L0.025,0.258L0.025,0.219C0.055,0.219 0.073,0.218 0.08,0.215C0.083,0.214 0.087,0.212 0.089,0.208C0.092,0.205 0.093,0.201 0.094,0.196C0.095,0.183 0.097,0.155 0.098,0.112L0.1,0.007L0.1,-0.219C0.1,-0.26 0.099,-0.296 0.098,-0.327C0.096,-0.358 0.094,-0.376 0.091,-0.381C0.089,-0.385 0.085,-0.388 0.081,-0.389C0.076,-0.391 0.057,-0.392 0.025,-0.393L0.025,-0.431C0.073,-0.436 0.11,-0.441 0.135,-0.447C0.16,-0.453 0.185,-0.462 0.211,-0.474L0.223,-0.466L0.221,-0.384L0.294,-0.444C0.298,-0.447 0.303,-0.452 0.309,-0.458C0.322,-0.463 0.332,-0.467 0.341,-0.469C0.35,-0.47 0.362,-0.471 0.377,-0.471C0.411,-0.471 0.439,-0.466 0.46,-0.457C0.491,-0.443 0.516,-0.421 0.535,-0.391C0.555,-0.362 0.564,-0.326 0.564,-0.284C0.564,-0.257 0.561,-0.23 0.554,-0.204C0.547,-0.178 0.538,-0.157 0.53,-0.141C0.521,-0.125 0.511,-0.112 0.501,-0.102C0.493,-0.094 0.481,-0.084 0.463,-0.071C0.445,-0.058 0.429,-0.045 0.414,-0.033C0.399,-0.02 0.388,-0.012 0.382,-0.008C0.371,-0.001 0.361,0.003 0.352,0.006C0.339,0.01 0.324,0.012 0.307,0.012C0.293,0.012 0.279,0.01 0.265,0.008C0.25,0.005 0.236,0.001 0.221,-0.003ZM0.221,-0.097C0.236,-0.082 0.252,-0.07 0.268,-0.063C0.284,-0.055 0.301,-0.051 0.319,-0.051C0.342,-0.051 0.363,-0.057 0.381,-0.069C0.399,-0.081 0.413,-0.1 0.424,-0.128C0.434,-0.156 0.439,-0.188 0.439,-0.224C0.439,-0.247 0.436,-0.269 0.431,-0.289C0.426,-0.31 0.419,-0.327 0.41,-0.34C0.401,-0.352 0.388,-0.363 0.372,-0.372C0.357,-0.38 0.339,-0.385 0.321,-0.385C0.303,-0.385 0.285,-0.38 0.266,-0.371C0.248,-0.362 0.233,-0.35 0.221,-0.336L0.221,-0.097Z" style="fill:white;fill-rule:nonzero;"/>
                </g>
            </g>
            <g transform="matrix(1.10763,0,0,1.32338,-208.569,-69.235)">
                <g transform="matrix(30,0,0,30,248.814,234.231)">
                    <path d="M0.586,-0.035L0.586,-0L0.483,-0.001L0.396,-0L0.391,-0.004L0.394,-0.042L0.395,-0.083C0.372,-0.064 0.347,-0.042 0.321,-0.019C0.31,-0.009 0.3,-0.001 0.29,0.006C0.278,0.011 0.261,0.013 0.241,0.013C0.187,0.013 0.142,-0.007 0.106,-0.046C0.071,-0.086 0.053,-0.14 0.053,-0.208C0.053,-0.247 0.058,-0.281 0.069,-0.311C0.077,-0.333 0.086,-0.351 0.096,-0.363C0.104,-0.372 0.126,-0.39 0.162,-0.415C0.198,-0.44 0.224,-0.456 0.24,-0.462C0.256,-0.468 0.276,-0.471 0.301,-0.471C0.317,-0.471 0.33,-0.47 0.34,-0.468C0.35,-0.465 0.368,-0.459 0.393,-0.45C0.394,-0.469 0.395,-0.489 0.395,-0.51C0.395,-0.535 0.394,-0.564 0.392,-0.6C0.391,-0.617 0.39,-0.627 0.387,-0.631C0.384,-0.635 0.381,-0.637 0.377,-0.638C0.373,-0.639 0.353,-0.64 0.317,-0.641L0.317,-0.677C0.386,-0.684 0.451,-0.698 0.51,-0.719L0.522,-0.712C0.519,-0.625 0.516,-0.573 0.516,-0.558C0.515,-0.473 0.515,-0.354 0.515,-0.201L0.515,-0.156C0.515,-0.134 0.515,-0.11 0.517,-0.084C0.518,-0.066 0.52,-0.055 0.522,-0.051C0.524,-0.046 0.528,-0.043 0.533,-0.042C0.538,-0.04 0.556,-0.037 0.586,-0.035ZM0.393,-0.347C0.375,-0.369 0.361,-0.383 0.349,-0.389C0.328,-0.402 0.304,-0.408 0.278,-0.408C0.256,-0.408 0.238,-0.402 0.223,-0.391C0.209,-0.38 0.199,-0.363 0.192,-0.338C0.185,-0.314 0.181,-0.286 0.181,-0.254C0.181,-0.195 0.194,-0.149 0.219,-0.117C0.238,-0.093 0.264,-0.081 0.295,-0.081C0.319,-0.081 0.341,-0.088 0.359,-0.102C0.377,-0.115 0.387,-0.128 0.391,-0.141C0.394,-0.154 0.396,-0.193 0.396,-0.257L0.393,-0.347Z" style="fill:white;fill-rule:nonzero;"/>
                </g>
            </g>
            <g transform="matrix(0.421583,0,0,0.503702,192.958,45.2966)">
                <circle cx="484.138" cy="239.005" r="9.196" style="fill:white;"/>
            </g>
            <g transform="matrix(0.421583,0,0,0.503702,222.601,37.272)">
                <circle cx="484.138" cy="239.005" r="9.196" style="fill:white;"/>
            </g>
            <g transform="matrix(0.30113,0,0,0.359787,290.027,68.9792)">
                <circle cx="484.138" cy="239.005" r="9.196" style="fill:white;"/>
            </g>
            <g transform="matrix(1.17718,0,0,1.40648,-541.995,-70.5376)">
                <circle cx="484.138" cy="239.005" r="9.196" style="fill:rgb(103,140,214);"/>
            </g>
            <g transform="matrix(0.233141,0,0,0.282295,264.379,77.4184)">
                <circle cx="572.834" cy="312.671" r="128.275" style="fill:none;stroke:white;stroke-opacity:0.42;stroke-width:4.72px;"/>
            </g>
            <g transform="matrix(0.0732625,0,0,0.0887086,384.739,129.922)">
                <circle cx="572.834" cy="312.671" r="128.275" style="fill:none;stroke:white;stroke-opacity:0.42;stroke-width:15.02px;"/>
            </g>
            <g transform="matrix(0.030222,0,0,0.0361088,418.504,143.68)">
                <circle cx="572.834" cy="312.671" r="128.275" style="fill:none;stroke:white;stroke-opacity:0.42;stroke-width:36.65px;"/>
            </g>
            <g transform="matrix(1.10763,0,0,1.32338,-6.92795,31.0897)">
                <g transform="matrix(1,-0,-0,1,6.25475,27.4976)">
                    <path d="M68.307,136.731L78.09,139.084L70.338,145.499L68.307,136.731Z" style="fill:white;"/>
                    <path d="M41.925,147.46C41.925,147.46 60.559,143.144 71.076,140.709" style="fill:none;stroke:white;stroke-width:3px;"/>
                </g>
            </g>
        </g>
    </g>
</svg>
