<?xml version="1.0" encoding="UTF-8" standalone="no"?><!DOCTYPE svg PUBLIC "-//W3C//DTD SVG 1.1//EN" "http://www.w3.org/Graphics/SVG/1.1/DTD/svg11.dtd"><svg width="100%" height="100%" viewBox="0 0 1194 879" version="1.1" xmlns="http://www.w3.org/2000/svg" xmlns:xlink="http://www.w3.org/1999/xlink" xml:space="preserve" xmlns:serif="http://www.serif.com/" style="fill-rule:evenodd;clip-rule:evenodd;stroke-linejoin:round;stroke-miterlimit:1.5;"><rect id="Artboard1" x="0" y="0" width="1193.81" height="878.815" style="fill:none;"/><path d="M369.124,538.477l-1.274,27.921l-21.573,-17.771l22.847,-10.15Z"/><path d="M310.843,438.082c-0,0 33.143,74.601 48.887,110.039" style="fill:none;stroke:#000;stroke-width:8.33px;"/><path d="M736.348,538.477l-1.273,27.921l-21.574,-17.771l22.847,-10.15Z"/><path d="M678.067,438.082c-0,0 33.143,74.601 48.887,110.039" style="fill:none;stroke:#000;stroke-width:8.33px;"/><path d="M457.52,548.627l-21.573,17.771l-1.273,-27.921l22.846,10.15Z"/><path d="M492.955,438.082c-0,0 -33.144,74.601 -48.888,110.039" style="fill:none;stroke:#000;stroke-width:8.33px;"/><path d="M824.745,548.627l-21.574,17.771l-1.273,-27.921l22.847,10.15Z"/><path d="M860.179,438.082c-0,0 -33.144,74.601 -48.888,110.039" style="fill:none;stroke:#000;stroke-width:8.33px;"/><rect x="98.618" y="187.824" width="257.846" height="257.846" style="fill:#ebebeb;stroke:#000;stroke-width:8.33px;stroke-linecap:round;"/><rect x="272.976" y="574.349" width="257.846" height="257.846" style="fill:#ebebeb;stroke:#000;stroke-width:8.33px;stroke-linecap:round;"/><rect x="458.451" y="187.824" width="257.846" height="257.846" style="fill:#ebebeb;stroke:#000;stroke-width:8.33px;stroke-linecap:round;"/><rect x="818.284" y="187.824" width="257.846" height="257.846" style="fill:#ebebeb;stroke:#000;stroke-width:8.33px;stroke-linecap:round;"/><rect x="637.929" y="579.349" width="257.846" height="257.846" style="fill:#ebebeb;stroke:#000;stroke-width:8.33px;stroke-linecap:round;"/><path d="M234.943,320.938l-0.833,24.791c0,2.709 -1.25,4.167 -2.917,5.417c-5.833,4.375 -12.916,8.125 -19.166,8.125c-9.375,-0 -15.417,-6.25 -15.417,-12.708c0,-9.375 4.375,-16.459 20.625,-20.834l17.708,-4.791Zm0.021,36.875c2.375,8.145 8.604,12.083 16.229,12.083c5.25,-0 11.667,-1.25 16.584,-6.458l-1.542,-5.146c-2.271,0.791 -4.042,1.083 -5.625,1.083c-2.062,0 -4.833,-0.396 -6.104,-1.562c-2.125,-1.938 -3.479,-6.98 -3.479,-16.25c-0,-6.042 0.583,-29.167 0.583,-31.459c0,-28.125 -18.542,-33.75 -34.375,-33.75c-15.833,0 -25.417,7.709 -30.625,12.084l-0.625,0.833l3.542,13.958l2.708,0.209c5.833,-9.375 12.917,-17.709 22.917,-17.709c7.5,0 20,1.042 20,24.584c-0,1.458 -0.834,2.291 -1.459,2.5l-19.375,4.375c-21.25,4.791 -34.583,16.041 -34.583,30.208c0,15.417 10.625,22.5 26.042,22.5c11.458,-0 17.291,-2.708 28.333,-12.083l0.854,-0Z" style="fill-rule:nonzero;"/><path d="M561.207,361.548l0,-53.958c8.125,-8.334 13.334,-12.292 21.875,-12.292c12.73,-0 23.959,10.479 23.959,36.458c-0,25.834 -7.709,40.417 -27.5,40.417c-6.459,-0 -14.167,-5.417 -18.334,-10.625Zm0,-87.292c0,-15.416 0.271,-26.396 1.25,-39.166c0,-1.459 -0.562,-2.084 -1.875,-2.084c-5.229,2.084 -9.687,3.542 -18.125,4.167l-0.416,0.625c1.604,8.896 2.5,24.375 2.5,40.208l-0,85.209c-0,8.125 -0.167,11.083 -1.042,15.625c1.25,1.25 3.646,1.666 5.833,1.666c2.292,-2.5 4.688,-6.041 6.875,-10.208c6.042,5.208 15.625,10.208 24.584,10.208c21.25,0 44.791,-15 44.791,-50.416c0,-25.417 -18.125,-43.125 -38.333,-43.125c-10,-0 -18.958,2.708 -26.042,10.416l0,-23.125Z" style="fill-rule:nonzero;"/><path d="M949.443,287.094c8.021,0 15.313,5.938 20.833,15.417l2.709,-0.208l4.791,-17.084l-0.416,-0.625c-6.459,-3.333 -17.292,-5.833 -27.709,-5.833c-21.666,0 -44.375,17.708 -44.375,46.042c0,28.979 16.459,47.5 41.875,47.5c12.5,-0 22.292,-4.167 30.625,-14.792l-3.958,-4.375l-0.833,0c-7.917,7.083 -14.542,8.75 -22.292,8.75c-15.208,0 -27.083,-13.75 -27.083,-38.125c-0,-22.917 12.083,-36.667 25.833,-36.667Z" style="fill-rule:nonzero;"/><path d="M392.94,701.254l-32.604,43.709c2.042,-0.375 5.417,-0.625 7.5,-0.625c2.083,-0 7.021,0.25 9.167,0.625c7.958,-11.938 14.166,-23.334 22.5,-35.021c8.333,11.687 14.5,23.083 22.083,35.021c3.021,-0.459 7.292,-0.625 10.625,-0.625c3.125,-0 8.646,0.271 11.875,0.625c-12.604,-16.271 -22.75,-32.334 -33.979,-48.604l34.187,-42.021c-2.645,0.458 -7.291,0.625 -9.375,0.625c-2.291,-0 -5.52,-0.167 -7.708,-0.625c-8,11.604 -14.521,22.666 -23.312,34.041c-8.355,-11.375 -14.063,-22.437 -21.063,-34.041c-3.604,0.458 -7.708,0.625 -11.25,0.625c-3.333,-0 -8.75,-0.167 -12.083,-0.625l33.437,46.916Z" style="fill-rule:nonzero;"/><path d="M721.35,648.179c8.291,18.5 33.041,72.271 40.416,92.083c-6.666,15.563 -15.166,31.604 -24.583,47.292c2.083,-0.625 5.208,-1.042 7.292,-1.042c2.083,0 8.125,0.417 10.208,1.042c7.917,-26.042 53.542,-125.417 60.417,-139.375c-2.084,0.625 -6.875,0.625 -8.959,0.625c-2.083,-0 -6.041,-0 -8.125,-0.625c-7.5,23.542 -17.229,50.167 -27.354,71.75l-0.417,-0c-10.25,-24.771 -20.062,-47.958 -27.854,-71.75c-2.708,0.625 -7.291,0.625 -10.208,0.625c-2.708,-0 -7.917,-0 -10.833,-0.625Z" style="fill-rule:nonzero;"/><path d="M211.256,156.949l12.5,25l12.5,-25l-25,0Z"/><path d="M223.756,161.949l-0,-119.53" style="fill:none;stroke:#000;stroke-width:8.33px;stroke-dasharray:16.67,16.67,0,0,0,0;"/><path d="M577.858,156.949l12.5,25l12.5,-25l-25,0Z"/><path d="M590.358,161.949l-0,-119.53" style="fill:none;stroke:#000;stroke-width:8.33px;stroke-dasharray:16.67,16.67,0,0,0,0;"/><path d="M938.082,156.949l12.5,25l12.5,-25l-25,0Z"/><path d="M950.582,161.949l0,-119.53" style="fill:none;stroke:#000;stroke-width:8.33px;stroke-dasharray:16.67,16.67,0,0,0,0;"/><path d="M142.186,167.549l23.326,15.4l-1.675,-27.9l-21.651,12.5Z"/><path d="M155.512,165.629c-20.145,-34.891 -63.703,-110.336 -63.703,-110.336" style="fill:none;stroke:#000;stroke-width:8.33px;stroke-dasharray:16.67,16.67,0,0,0,0;"/><path d="M508.788,167.549l23.326,15.4l-1.675,-27.9l-21.651,12.5Z"/><path d="M522.114,165.629c-20.145,-34.891 -63.703,-110.336 -63.703,-110.336" style="fill:none;stroke:#000;stroke-width:8.33px;stroke-dasharray:16.67,16.67,0,0,0,0;"/><path d="M868.101,165.969l23.325,15.401l-1.675,-27.901l-21.65,12.5Z"/><path d="M881.426,164.05c-19.949,-34.553 -62.79,-108.757 -62.79,-108.757" style="fill:none;stroke:#000;stroke-width:8.33px;stroke-dasharray:16.67,16.67,0,0,0,0;"/><path d="M283.816,154.049l-1.675,27.9l23.326,-15.4l-21.651,-12.5Z"/><path d="M292.141,164.629c20.145,-34.891 63.703,-110.336 63.703,-110.336" style="fill:none;stroke:#000;stroke-width:8.33px;stroke-dasharray:16.67,16.67,0,0,0,0;"/><path d="M650.418,154.049l-1.675,27.9l23.325,-15.4l-21.65,-12.5Z"/><path d="M658.743,164.629c20.144,-34.891 63.702,-110.336 63.702,-110.336" style="fill:none;stroke:#000;stroke-width:8.33px;stroke-dasharray:16.67,16.67,0,0,0,0;"/><path d="M1010.64,154.049l-1.675,27.9l23.326,-15.4l-21.651,-12.5Z"/><path d="M1018.97,164.629c20.145,-34.891 63.703,-110.336 63.703,-110.336" style="fill:none;stroke:#000;stroke-width:8.33px;stroke-dasharray:16.67,16.67,0,0,0,0;"/></svg>