<?xml version="1.0" encoding="UTF-8" standalone="no"?><!DOCTYPE svg PUBLIC "-//W3C//DTD SVG 1.1//EN" "http://www.w3.org/Graphics/SVG/1.1/DTD/svg11.dtd"><svg width="100%" height="100%" viewBox="0 0 1194 879" version="1.1" xmlns="http://www.w3.org/2000/svg" xmlns:xlink="http://www.w3.org/1999/xlink" xml:space="preserve" xmlns:serif="http://www.serif.com/" style="fill-rule:evenodd;clip-rule:evenodd;stroke-linejoin:round;stroke-miterlimit:1.5;"><rect id="Artboard1" x="0" y="-0" width="1193.81" height="878.815" style="fill:none;"/><g opacity="0.14"><path d="M369.124,538.477l-1.274,27.921l-21.573,-17.771l22.847,-10.15Z" style="fill:#d9d9d9;"/><path d="M310.843,438.082c-0,0 33.143,74.601 48.887,110.039" style="fill:none;stroke:#d9d9d9;stroke-width:8.33px;"/><path d="M457.52,548.627l-21.573,17.771l-1.273,-27.921l22.846,10.15Z" style="fill:#d9d9d9;"/><path d="M492.955,438.082c-0,0 -33.144,74.601 -48.888,110.039" style="fill:none;stroke:#d9d9d9;stroke-width:8.33px;"/><rect x="98.618" y="187.824" width="257.846" height="257.846" style="fill:#262626;stroke:#d9d9d9;stroke-width:8.33px;stroke-linecap:round;"/><path d="M234.943,320.938l-0.833,24.791c0,2.709 -1.25,4.167 -2.917,5.417c-5.833,4.375 -12.916,8.125 -19.166,8.125c-9.375,-0 -15.417,-6.25 -15.417,-12.708c0,-9.375 4.375,-16.459 20.625,-20.834l17.708,-4.791Zm0.021,36.875c2.375,8.145 8.604,12.083 16.229,12.083c5.25,-0 11.667,-1.25 16.584,-6.458l-1.542,-5.146c-2.271,0.791 -4.042,1.083 -5.625,1.083c-2.062,0 -4.833,-0.396 -6.104,-1.562c-2.125,-1.938 -3.479,-6.98 -3.479,-16.25c-0,-6.042 0.583,-29.167 0.583,-31.459c0,-28.125 -18.542,-33.75 -34.375,-33.75c-15.833,0 -25.417,7.709 -30.625,12.084l-0.625,0.833l3.542,13.958l2.708,0.209c5.833,-9.375 12.917,-17.709 22.917,-17.709c7.5,0 20,1.042 20,24.584c-0,1.458 -0.834,2.291 -1.459,2.5l-19.375,4.375c-21.25,4.791 -34.583,16.041 -34.583,30.208c0,15.417 10.625,22.5 26.042,22.5c11.458,-0 17.291,-2.708 28.333,-12.083l0.854,-0Z" style="fill:#d9d9d9;fill-rule:nonzero;"/><path d="M211.256,156.949l12.5,25l12.5,-25l-25,0Z" style="fill:#d9d9d9;"/><path d="M223.756,161.949l-0,-119.53" style="fill:none;stroke:#d9d9d9;stroke-width:8.33px;stroke-dasharray:16.67,16.67,0,0,0,0;"/><path d="M142.186,167.549l23.326,15.4l-1.675,-27.9l-21.651,12.5Z" style="fill:#d9d9d9;"/><path d="M155.512,165.629c-20.145,-34.891 -63.703,-110.336 -63.703,-110.336" style="fill:none;stroke:#d9d9d9;stroke-width:8.33px;stroke-dasharray:16.67,16.67,0,0,0,0;"/><path d="M283.816,154.049l-1.675,27.9l23.326,-15.4l-21.651,-12.5Z" style="fill:#d9d9d9;"/><path d="M292.141,164.629c20.145,-34.891 63.703,-110.336 63.703,-110.336" style="fill:none;stroke:#d9d9d9;stroke-width:8.33px;stroke-dasharray:16.67,16.67,0,0,0,0;"/></g><path d="M736.348,538.477l-1.273,27.921l-21.574,-17.771l22.847,-10.15Z" style="fill:#d9d9d9;"/><path d="M678.067,438.082c-0,0 33.143,74.601 48.887,110.039" style="fill:none;stroke:#d9d9d9;stroke-width:8.33px;"/><path d="M824.745,548.627l-21.574,17.771l-1.273,-27.921l22.847,10.15Z" style="fill:#d9d9d9;"/><path d="M860.179,438.082c-0,0 -33.144,74.601 -48.888,110.039" style="fill:none;stroke:#d9d9d9;stroke-width:8.33px;"/><rect x="458.451" y="187.824" width="257.846" height="257.846" style="fill:#262626;stroke:#d9d9d9;stroke-width:8.33px;stroke-linecap:round;"/><rect x="818.284" y="187.824" width="257.846" height="257.846" style="fill:#262626;stroke:#d9d9d9;stroke-width:8.33px;stroke-linecap:round;"/><rect x="637.929" y="579.349" width="257.846" height="257.846" style="fill:#262626;stroke:#d9d9d9;stroke-width:8.33px;stroke-linecap:round;"/><path d="M561.207,361.548l0,-53.958c8.125,-8.334 13.334,-12.292 21.875,-12.292c12.73,-0 23.959,10.479 23.959,36.458c-0,25.834 -7.709,40.417 -27.5,40.417c-6.459,-0 -14.167,-5.417 -18.334,-10.625Zm0,-87.292c0,-15.416 0.271,-26.396 1.25,-39.166c0,-1.459 -0.562,-2.084 -1.875,-2.084c-5.229,2.084 -9.687,3.542 -18.125,4.167l-0.416,0.625c1.604,8.896 2.5,24.375 2.5,40.208l-0,85.209c-0,8.125 -0.167,11.083 -1.042,15.625c1.25,1.25 3.646,1.666 5.833,1.666c2.292,-2.5 4.688,-6.041 6.875,-10.208c6.042,5.208 15.625,10.208 24.584,10.208c21.25,0 44.791,-15 44.791,-50.416c0,-25.417 -18.125,-43.125 -38.333,-43.125c-10,-0 -18.958,2.708 -26.042,10.416l0,-23.125Z" style="fill:#d9d9d9;fill-rule:nonzero;"/><path d="M949.443,287.094c8.021,0 15.313,5.938 20.833,15.417l2.709,-0.208l4.791,-17.084l-0.416,-0.625c-6.459,-3.333 -17.292,-5.833 -27.709,-5.833c-21.666,0 -44.375,17.708 -44.375,46.042c0,28.979 16.459,47.5 41.875,47.5c12.5,-0 22.292,-4.167 30.625,-14.792l-3.958,-4.375l-0.833,0c-7.917,7.083 -14.542,8.75 -22.292,8.75c-15.208,0 -27.083,-13.75 -27.083,-38.125c-0,-22.917 12.083,-36.667 25.833,-36.667Z" style="fill:#d9d9d9;fill-rule:nonzero;"/><path d="M721.35,648.179c8.291,18.5 33.041,72.271 40.416,92.083c-6.666,15.563 -15.166,31.604 -24.583,47.292c2.083,-0.625 5.208,-1.042 7.292,-1.042c2.083,0 8.125,0.417 10.208,1.042c7.917,-26.042 53.542,-125.417 60.417,-139.375c-2.084,0.625 -6.875,0.625 -8.959,0.625c-2.083,-0 -6.041,-0 -8.125,-0.625c-7.5,23.542 -17.229,50.167 -27.354,71.75l-0.417,-0c-10.25,-24.771 -20.062,-47.958 -27.854,-71.75c-2.708,0.625 -7.291,0.625 -10.208,0.625c-2.708,-0 -7.917,-0 -10.833,-0.625Z" style="fill:#d9d9d9;fill-rule:nonzero;"/><path d="M577.858,156.949l12.5,25l12.5,-25l-25,0Z" style="fill:#d9d9d9;"/><path d="M590.358,161.949l-0,-119.53" style="fill:none;stroke:#d9d9d9;stroke-width:8.33px;stroke-dasharray:16.67,16.67,0,0,0,0;"/><path d="M938.082,156.949l12.5,25l12.5,-25l-25,0Z" style="fill:#d9d9d9;"/><path d="M950.582,161.949l0,-119.53" style="fill:none;stroke:#d9d9d9;stroke-width:8.33px;stroke-dasharray:16.67,16.67,0,0,0,0;"/><path d="M508.788,167.549l23.326,15.4l-1.675,-27.9l-21.651,12.5Z" style="fill:#d9d9d9;"/><path d="M522.114,165.629c-20.145,-34.891 -63.703,-110.336 -63.703,-110.336" style="fill:none;stroke:#d9d9d9;stroke-width:8.33px;stroke-dasharray:16.67,16.67,0,0,0,0;"/><path d="M868.101,165.969l23.325,15.401l-1.675,-27.901l-21.65,12.5Z" style="fill:#d9d9d9;"/><path d="M881.426,164.05c-19.949,-34.553 -62.79,-108.757 -62.79,-108.757" style="fill:none;stroke:#d9d9d9;stroke-width:8.33px;stroke-dasharray:16.67,16.67,0,0,0,0;"/><path d="M650.418,154.049l-1.675,27.9l23.325,-15.4l-21.65,-12.5Z" style="fill:#d9d9d9;"/><path d="M658.743,164.629c20.144,-34.891 63.702,-110.336 63.702,-110.336" style="fill:none;stroke:#d9d9d9;stroke-width:8.33px;stroke-dasharray:16.67,16.67,0,0,0,0;"/><path d="M1010.64,154.049l-1.675,27.9l23.326,-15.4l-21.651,-12.5Z" style="fill:#d9d9d9;"/><path d="M1018.97,164.629c20.145,-34.891 63.703,-110.336 63.703,-110.336" style="fill:none;stroke:#d9d9d9;stroke-width:8.33px;stroke-dasharray:16.67,16.67,0,0,0,0;"/><rect x="272.976" y="574.349" width="257.846" height="257.846" style="fill:#394b95;stroke:#d9d9d9;stroke-width:8.33px;stroke-linecap:round;"/><path d="M392.94,701.254l-32.604,43.709c2.042,-0.375 5.417,-0.625 7.5,-0.625c2.083,-0 7.021,0.25 9.167,0.625c7.958,-11.938 14.166,-23.334 22.5,-35.021c8.333,11.687 14.5,23.083 22.083,35.021c3.021,-0.459 7.292,-0.625 10.625,-0.625c3.125,-0 8.646,0.271 11.875,0.625c-12.604,-16.271 -22.75,-32.334 -33.979,-48.604l34.187,-42.021c-2.645,0.458 -7.291,0.625 -9.375,0.625c-2.291,-0 -5.52,-0.167 -7.708,-0.625c-8,11.604 -14.521,22.666 -23.312,34.041c-8.355,-11.375 -14.063,-22.437 -21.063,-34.041c-3.604,0.458 -7.708,0.625 -11.25,0.625c-3.333,-0 -8.75,-0.167 -12.083,-0.625l33.437,46.916Z" style="fill:#d9d9d9;fill-rule:nonzero;"/><path d="M293.69,793.649c0.992,-6.067 4.813,-7.35 6.65,-7.35c2.305,0 4.9,2.158 4.9,6.533c0,0.525 -0.233,0.817 -0.816,0.817l-10.734,0Zm15.575,9.858c-2.041,2.217 -4.783,3.209 -7.991,3.209c-1.995,-0 -4.754,-0.759 -6.359,-3.325c-1.026,-1.639 -1.4,-4.019 -1.4,-7.409l15.867,0c0.642,0 1.05,-0.35 1.05,-0.991c0,-4.9 -2.392,-11.025 -10.092,-11.025c-6.008,-0 -11.958,4.841 -11.958,13.416c0,3.308 0.671,6.58 2.625,8.925c2.007,2.41 5.343,3.85 9.275,3.85c4.2,0 7.933,-2.158 10.15,-5.191l-1.167,-1.459Z" style="fill:#d9d9d9;fill-rule:nonzero;"/><path d="M324.199,809.749c0.583,-0.175 1.225,-0.175 1.808,-0.175c0.583,0 1.225,0 1.75,0.175c3.033,-8.517 6.65,-16.8 10.442,-25.375c-0.525,0.175 -1.634,0.175 -2.217,0.175c-0.583,0 -1.458,0 -1.983,-0.175c-2.363,6.598 -4.393,14.228 -7.07,19.944l-0.117,0c-2.922,-6.679 -4.812,-13.253 -6.93,-19.944c-0.758,0.175 -2.1,0.175 -2.917,0.175c-0.933,0 -2.45,0 -3.383,-0.175c3.908,8.575 7.35,16.858 10.617,25.375Z" style="fill:#d9d9d9;fill-rule:nonzero;"/><path d="M357.449,796.449l-0.234,6.942c0,0.758 -0.35,1.166 -0.816,1.516c-1.634,1.225 -3.617,2.275 -5.367,2.275c-2.625,0 -4.317,-1.75 -4.317,-3.558c0,-2.625 1.225,-4.608 5.775,-5.833l4.959,-1.342Zm0.006,10.325c0.665,2.281 2.409,3.383 4.544,3.383c1.47,0 3.266,-0.35 4.643,-1.808l-0.432,-1.441c-0.635,0.222 -1.131,0.304 -1.575,0.304c-0.577,-0 -1.353,-0.111 -1.709,-0.438c-0.595,-0.542 -0.974,-1.954 -0.974,-4.55c0,-1.692 0.163,-8.167 0.163,-8.808c0,-7.875 -5.191,-9.45 -9.625,-9.45c-4.433,-0 -7.116,2.158 -8.575,3.383l-0.175,0.233l0.992,3.909l0.758,0.058c1.634,-2.625 3.617,-4.958 6.417,-4.958c2.1,-0 5.6,0.291 5.6,6.883c0,0.408 -0.233,0.642 -0.408,0.7l-5.425,1.225c-5.95,1.342 -9.684,4.492 -9.684,8.458c0,4.317 2.975,6.3 7.292,6.3c3.208,0 4.842,-0.758 7.933,-3.383l0.24,0Z" style="fill:#d9d9d9;fill-rule:nonzero;"/><path d="M372.674,797.907c-0,4.346 -0.088,8.546 -0.525,11.667l0.116,0.175c0.7,-0.117 2.042,-0.175 2.742,-0.175c0.7,0 2.042,0.058 2.742,0.175l0.116,-0.175c-0.455,-3.325 -0.525,-7.28 -0.525,-11.667l0,-17.5c0,-4.375 0.251,-7.274 0.525,-10.966c0,-0.409 -0.157,-0.584 -0.525,-0.584c-1.464,0.584 -2.712,0.992 -5.075,1.167l-0.116,0.175c0.449,2.491 0.525,6.825 0.525,11.258l-0,16.45Z" style="fill:#d9d9d9;fill-rule:nonzero;"/><path d="M403.415,804.207l0.234,0.175l0.291,5.192c0,0.117 0.07,0.175 0.234,0.175c0.776,-0.099 1.458,-0.175 2.304,-0.175c0.735,0 1.837,0.058 2.596,0.175l0.116,-0.175c-0.466,-2.508 -0.991,-6.825 -0.991,-11.2l-0,-3.325c-0,-4.375 0.058,-7.408 0.525,-10.5l-0.117,-0.175c-0.7,0.117 -2.042,0.175 -2.742,0.175c-0.7,0 -2.041,-0.058 -2.741,-0.175l-0.117,0.175c0.455,3.337 0.525,6.067 0.525,10.5l0,5.717c-1.779,3.004 -5.133,6.125 -7.992,6.125c-2.012,-0 -3.908,-0.642 -3.908,-6.067l0,-5.775c0,-4.375 0.058,-7.408 0.525,-10.5l-0.117,-0.175c-0.7,0.117 -2.041,0.175 -2.741,0.175c-0.7,0 -2.042,-0.058 -2.742,-0.175l-0.117,0.175c0.467,3.325 0.525,6.067 0.525,10.5l0,7c0,4.025 1.867,8.108 7.642,8.108c3.617,0 6.883,-2.975 8.808,-5.95Z" style="fill:#d9d9d9;fill-rule:nonzero;"/><path d="M431.532,796.449l-0.233,6.942c-0,0.758 -0.35,1.166 -0.817,1.516c-1.633,1.225 -3.617,2.275 -5.367,2.275c-2.625,0 -4.316,-1.75 -4.316,-3.558c-0,-2.625 1.225,-4.608 5.775,-5.833l4.958,-1.342Zm0.006,10.325c0.665,2.281 2.409,3.383 4.544,3.383c1.47,0 3.267,-0.35 4.643,-1.808l-0.431,-1.441c-0.636,0.222 -1.132,0.304 -1.575,0.304c-0.578,-0 -1.354,-0.111 -1.709,-0.438c-0.595,-0.542 -0.975,-1.954 -0.975,-4.55c0,-1.692 0.164,-8.167 0.164,-8.808c-0,-7.875 -5.192,-9.45 -9.625,-9.45c-4.434,-0 -7.117,2.158 -8.575,3.383l-0.175,0.233l0.991,3.909l0.759,0.058c1.633,-2.625 3.616,-4.958 6.416,-4.958c2.1,-0 5.6,0.291 5.6,6.883c0,0.408 -0.233,0.642 -0.408,0.7l-5.425,1.225c-5.95,1.342 -9.683,4.492 -9.683,8.458c-0,4.317 2.975,6.3 7.291,6.3c3.209,0 4.842,-0.758 7.934,-3.383l0.239,0Z" style="fill:#d9d9d9;fill-rule:nonzero;"/><path d="M447.049,784.549c-1.196,-0.006 -2.427,-0.023 -3.15,-0.117c-0.391,0.951 -0.718,1.517 -1.284,2.392l0.292,0.408c1.003,-0.075 2.812,-0.11 4.142,-0.116l-0,7.991c-0,3.5 -0.175,7.7 -0.175,9.45c-0,3.792 2.45,5.6 5.133,5.6c2.45,0 4.317,-0.583 6.767,-2.158l-0.718,-1.441c-1.791,0.624 -3.132,0.683 -4.591,0.449c-1.382,-0.221 -1.925,-1.627 -1.925,-4.783c0,-1.75 0.175,-4.258 0.175,-7.758l0,-7.35l2.217,-0c1.4,-0 3.424,0.041 4.2,0.116c0.175,-0.933 0.35,-1.534 0.7,-2.391l-0.292,-0.409c-1.05,0.041 -2.741,0.117 -4.083,0.117l-2.742,0c0,-4.363 0.03,-5.133 0.292,-8.517c0,-0.425 -0.157,-0.583 -0.525,-0.583c-1.464,0.583 -2.187,1.196 -4.083,1.458l-0.117,0.175c-0.117,2.025 -0.233,4.084 -0.233,7.467Z" style="fill:#d9d9d9;fill-rule:nonzero;"/><path d="M468.632,793.649c0.992,-6.067 4.813,-7.35 6.65,-7.35c2.304,0 4.9,2.158 4.9,6.533c0,0.525 -0.233,0.817 -0.817,0.817l-10.733,0Zm15.575,9.858c-2.042,2.217 -4.783,3.209 -7.992,3.209c-1.995,-0 -4.754,-0.759 -6.358,-3.325c-1.027,-1.639 -1.4,-4.019 -1.4,-7.409l15.867,0c0.641,0 1.05,-0.35 1.05,-0.991c-0,-4.9 -2.392,-11.025 -10.092,-11.025c-6.008,-0 -11.958,4.841 -11.958,13.416c-0,3.308 0.671,6.58 2.625,8.925c2.006,2.41 5.343,3.85 9.275,3.85c4.2,0 7.933,-2.158 10.15,-5.191l-1.167,-1.459Z" style="fill:#d9d9d9;fill-rule:nonzero;"/><path d="M509.232,802.982c-2.129,2.713 -4.812,4.142 -7.175,4.142c-3.15,0 -5.833,-3.15 -5.833,-10.442c-0,-8.75 4.643,-10.383 7.466,-10.383c2.742,0 4.142,1.167 5.542,3.383l0,13.3Zm0,3.209l0.117,-0l0.291,3.383c0,0.117 0.175,0.175 0.525,0.175c0.776,-0.099 1.167,-0.175 2.013,-0.175c0.735,0 1.837,0.058 2.596,0.175l0.116,-0.175c-0.466,-2.508 -0.991,-6.825 -0.991,-11.2l-0,-17.967c-0,-4.316 0.233,-7.367 0.525,-10.966c-0,-0.409 -0.158,-0.584 -0.525,-0.584c-1.464,0.584 -2.713,0.992 -5.075,1.167l-0.117,0.175c0.449,2.491 0.525,6.825 0.525,11.258l0,3.792c-1.342,-0.758 -3.733,-1.283 -4.9,-1.283c-7.595,-0 -13.183,5.25 -13.183,13.183c-0,7.175 4.258,13.008 10.558,13.008c2.8,0 5.425,-1.254 7.525,-3.966Z" style="fill:#d9d9d9;fill-rule:nonzero;"/></svg>